<svg fill="none" xmlns="http://www.w3.org/2000/svg" viewBox="0 0 24 24"><path fill-rule="evenodd" clip-rule="evenodd" d="M5.439 7c-1.475 0-2.622.66-3.374 1.643C1.335 9.599 1 10.824 1 12c0 1.176.335 2.401 1.065 3.357.752.984 1.9 1.643 3.374 1.643 2.87 0 4.904-1.794 6.561-3.534C13.658 15.206 15.692 17 18.561 17c1.475 0 2.622-.66 3.374-1.643C22.665 14.401 23 13.176 23 12c0-1.176-.335-2.401-1.065-3.357C21.183 7.659 20.036 7 18.56 7c-2.87 0-4.903 1.794-6.56 3.534C10.342 8.794 8.307 7 5.438 7Zm0 8c-.818 0-1.39-.34-1.784-.857C3.239 13.599 3 12.824 3 12c0-.824.239-1.599.655-2.143C4.048 9.341 4.62 9 5.439 9c2.04 0 3.548 1.273 5.192 3-1.644 1.727-3.153 3-5.192 3Zm13.122 0c.818 0 1.39-.34 1.785-.857.415-.544.654-1.319.654-2.143 0-.824-.239-1.599-.654-2.143C19.95 9.341 19.379 9 18.56 9c-2.04 0-3.547 1.273-5.192 3 1.645 1.727 3.153 3 5.192 3Z" fill="currentColor"/></svg>