<svg fill="none" xmlns="http://www.w3.org/2000/svg" viewBox="0 0 24 24"><path d="M11.707.893a1 1 0 1 0-1.414 1.414l.297.297C6.012 3.285 2.5 7.232 2.5 12a9.488 9.488 0 0 0 3.911 7.683 1 1 0 1 0 1.178-1.617 7.502 7.502 0 0 1 2.956-13.425l-.252.252a1 1 0 1 0 1.414 1.414l2-2a1 1 0 0 0 0-1.414l-2-2Zm5.882 3.424a1 1 0 0 0-1.178 1.617 7.502 7.502 0 0 1-2.956 13.425l.252-.252a1 1 0 0 0-1.414-1.414l-2 2a1 1 0 0 0 0 1.414l2 2a1 1 0 1 0 1.414-1.414l-.297-.297c4.578-.681 8.09-4.629 8.09-9.396a9.489 9.489 0 0 0-3.911-7.683Z" fill="currentColor"/></svg>