<svg fill="none" xmlns="http://www.w3.org/2000/svg" viewBox="0 0 24 24"><path opacity=".4" d="M17 19.4c0 1.436-1.12 2.6-2.5 2.6S12 20.836 12 19.4V12" stroke="currentColor" stroke-width="2" stroke-linecap="round" stroke-linejoin="round"/><path d="M12 2c-4.98 0-9.11 3.64-9.874 8.406-.074.465-.111.698-.018.946.074.198.257.412.44.516.23.132.504.132 1.052.132h16.8c.548 0 .821 0 1.052-.132.183-.104.365-.318.44-.516.093-.248.056-.48-.018-.946C21.11 5.641 16.98 2 12 2Z" stroke="currentColor" stroke-width="2" stroke-linecap="round" stroke-linejoin="round"/></svg>