<svg fill="none" xmlns="http://www.w3.org/2000/svg" viewBox="0 0 24 24"><path fill-rule="evenodd" clip-rule="evenodd" d="M12.22 12.98c-2.17.694-4.64 1.484-7.492.68-.442-.125-.971-.31-1.375-.458a38.4 38.4 0 0 1-.663-.25l-.041-.016-.016-.006.357-.905-.357.905a1 1 0 0 1 .734-1.86L3 12l.367-.93.011.004.037.014.141.055c.121.046.29.11.484.181.394.144.865.308 1.232.411 2.231.63 4.173.032 6.423-.688l.086-.027c2.169-.694 4.64-1.485 7.49-.68.443.124.973.31 1.376.457a35.723 35.723 0 0 1 .663.25l.041.016.016.006L21 12l.367-.93a1 1 0 0 1-.734 1.861l-.011-.005-.037-.014a31.15 31.15 0 0 0-.625-.235 18.774 18.774 0 0 0-1.232-.412c-2.232-.63-4.173-.032-6.423.688l-.086.028Zm0 6c-2.17.694-4.64 1.485-7.492.68-.442-.125-.971-.31-1.375-.458a38.4 38.4 0 0 1-.663-.25l-.041-.016-.016-.006.357-.905-.357.905a1 1 0 0 1 .734-1.86L3 18l.367-.93.011.004.037.014a27.861 27.861 0 0 0 .625.236c.394.144.865.308 1.232.411 2.231.63 4.173.032 6.423-.688l.086-.027c2.169-.694 4.64-1.485 7.49-.68.443.124.973.31 1.376.457a35.723 35.723 0 0 1 .663.25l.041.016.016.006L21 18l.367-.93a1 1 0 0 1-.734 1.861l-.011-.005-.037-.014a31.15 31.15 0 0 0-.625-.235 18.774 18.774 0 0 0-1.232-.412c-2.232-.63-4.173-.032-6.423.688l-.086.028Zm0-12c-2.17.694-4.64 1.484-7.492.68-.442-.125-.971-.31-1.375-.458a36.988 36.988 0 0 1-.663-.25l-.041-.016-.016-.006.357-.905-.357.905a1 1 0 0 1 .734-1.86L3 6l.367-.93.011.004.037.014a27.646 27.646 0 0 0 .625.236c.394.144.865.308 1.232.411 2.231.63 4.173.032 6.423-.688l.086-.027c2.169-.694 4.64-1.485 7.49-.68.443.124.973.31 1.376.457a36.795 36.795 0 0 1 .663.25l.041.016.016.006L21 6l.367-.93a1 1 0 0 1-.734 1.861l-.011-.005-.037-.014a31.113 31.113 0 0 0-.625-.235 18.762 18.762 0 0 0-1.232-.412c-2.232-.63-4.173-.032-6.423.688l-.086.028Z" fill="currentColor"/></svg>