<svg fill="none" xmlns="http://www.w3.org/2000/svg" viewBox="0 0 24 24"><path opacity=".4" d="M10 7H3m18 0h-7m0 .252c3.45.888 6 4.02 6 7.748M4 15c0-3.728 2.55-6.86 6-7.748" stroke="currentColor" stroke-width="2" stroke-linecap="round" stroke-linejoin="round"/><path d="M2 16.6c0-.56 0-.84.109-1.054a1 1 0 0 1 .437-.437C2.76 15 3.04 15 3.6 15h.8c.56 0 .84 0 1.054.109a1 1 0 0 1 .437.437C6 15.76 6 16.04 6 16.6v.8c0 .56 0 .84-.109 1.054a1 1 0 0 1-.437.437C5.24 19 4.96 19 4.4 19h-.8c-.56 0-.84 0-1.054-.109a1 1 0 0 1-.437-.437C2 18.24 2 17.96 2 17.4v-.8Zm8-10c0-.56 0-.84.109-1.054a1 1 0 0 1 .437-.437C10.76 5 11.04 5 11.6 5h.8c.56 0 .84 0 1.054.109a1 1 0 0 1 .437.437C14 5.76 14 6.04 14 6.6v.8c0 .56 0 .84-.109 1.054a1 1 0 0 1-.437.437C13.24 9 12.96 9 12.4 9h-.8c-.56 0-.84 0-1.054-.109a1 1 0 0 1-.437-.437C10 8.24 10 7.96 10 7.4v-.8Zm8 10c0-.56 0-.84.109-1.054a1 1 0 0 1 .437-.437C18.76 15 19.04 15 19.6 15h.8c.56 0 .84 0 1.054.109a1 1 0 0 1 .437.437C22 15.76 22 16.04 22 16.6v.8c0 .56 0 .84-.109 1.054a1 1 0 0 1-.437.437C21.24 19 20.96 19 20.4 19h-.8c-.56 0-.84 0-1.054-.109a1 1 0 0 1-.437-.437C18 18.24 18 17.96 18 17.4v-.8ZM21 8a1 1 0 1 0 0-2 1 1 0 0 0 0 2ZM3 8a1 1 0 1 0 0-2 1 1 0 0 0 0 2Z" stroke="currentColor" stroke-width="2" stroke-linecap="round" stroke-linejoin="round"/></svg>