<svg fill="none" xmlns="http://www.w3.org/2000/svg" viewBox="0 0 24 24"><path opacity=".4" d="M10 20.263A8.514 8.514 0 0 1 3.737 14m16.526 0A8.513 8.513 0 0 1 14 20.263m0-16.527A8.513 8.513 0 0 1 20.264 10M3.736 10A8.513 8.513 0 0 1 10 3.736" stroke="currentColor" stroke-width="2" stroke-linecap="round" stroke-linejoin="round"/><path d="M2 11.6c0-.56 0-.84.109-1.054a1 1 0 0 1 .437-.437C2.76 10 3.04 10 3.6 10h.8c.56 0 .84 0 1.054.109a1 1 0 0 1 .437.437C6 10.76 6 11.04 6 11.6v.8c0 .56 0 .84-.109 1.054a1 1 0 0 1-.437.437C5.24 14 4.96 14 4.4 14h-.8c-.56 0-.84 0-1.054-.109a1 1 0 0 1-.437-.437C2 13.24 2 12.96 2 12.4v-.8Zm16 0c0-.56 0-.84.109-1.054a1 1 0 0 1 .437-.437C18.76 10 19.04 10 19.6 10h.8c.56 0 .84 0 1.054.109a1 1 0 0 1 .437.437C22 10.76 22 11.04 22 11.6v.8c0 .56 0 .84-.109 1.054a1 1 0 0 1-.437.437C21.24 14 20.96 14 20.4 14h-.8c-.56 0-.84 0-1.054-.109a1 1 0 0 1-.437-.437C18 13.24 18 12.96 18 12.4v-.8Zm-8-8c0-.56 0-.84.109-1.054a1 1 0 0 1 .437-.437C10.76 2 11.04 2 11.6 2h.8c.56 0 .84 0 1.054.109a1 1 0 0 1 .437.437C14 2.76 14 3.04 14 3.6v.8c0 .56 0 .84-.109 1.054a1 1 0 0 1-.437.437C13.24 6 12.96 6 12.4 6h-.8c-.56 0-.84 0-1.054-.109a1 1 0 0 1-.437-.437C10 5.24 10 4.96 10 4.4v-.8Zm0 16c0-.56 0-.84.109-1.054a1 1 0 0 1 .437-.437C10.76 18 11.04 18 11.6 18h.8c.56 0 .84 0 1.054.109a1 1 0 0 1 .437.437C14 18.76 14 19.04 14 19.6v.8c0 .56 0 .84-.109 1.054a1 1 0 0 1-.437.437C13.24 22 12.96 22 12.4 22h-.8c-.56 0-.84 0-1.054-.109a1 1 0 0 1-.437-.437C10 21.24 10 20.96 10 20.4v-.8Z" stroke="currentColor" stroke-width="2" stroke-linecap="round" stroke-linejoin="round"/></svg>