<svg fill="none" xmlns="http://www.w3.org/2000/svg" viewBox="0 0 24 24"><path d="M7 2a1 1 0 1 0-2 0v3H2a1 1 0 0 0 0 2h3v7.838c0 .528 0 .982.03 1.357.033.395.104.789.297 1.167a3 3 0 0 0 1.311 1.311c.378.193.772.264 1.167.296.375.031.83.031 1.356.031H17v3a1 1 0 1 0 2 0v-3h3a1 1 0 1 0 0-2H9.2c-.577 0-.949 0-1.232-.024-.272-.022-.373-.06-.422-.085a1 1 0 0 1-.437-.437c-.025-.05-.063-.15-.085-.422C7 15.75 7 15.377 7 14.8V2Z" fill="currentColor"/><path d="M14.8 7c.577 0 .949 0 1.232.024.272.022.372.06.422.085a1 1 0 0 1 .437.437c.025.05.063.15.085.422C17 8.25 17 8.623 17 9.2V14a1 1 0 1 0 2 0V9.161c0-.527 0-.981-.03-1.356-.033-.395-.104-.789-.297-1.167a3 3 0 0 0-1.311-1.311c-.378-.193-.772-.264-1.167-.296A17.9 17.9 0 0 0 14.838 5H10a1 1 0 1 0 0 2h4.8Z" fill="currentColor"/></svg>