<svg fill="none" xmlns="http://www.w3.org/2000/svg" viewBox="0 0 24 24"><path opacity=".4" d="M21 21H8" stroke="currentColor" stroke-width="2" stroke-linecap="round" stroke-linejoin="round"/><path d="m18 13-7-7m-.063 14.063 8.669-8.669c1.188-1.188 1.782-1.782 2.005-2.467a3.001 3.001 0 0 0 0-1.854c-.223-.685-.817-1.279-2.005-2.467l-.212-.212c-1.188-1.188-1.782-1.782-2.467-2.004a3 3 0 0 0-1.854 0c-.685.222-1.279.816-2.467 2.004l-8.212 8.212c-1.188 1.188-1.782 1.782-2.004 2.467a3 3 0 0 0 0 1.854c.222.685.816 1.28 2.004 2.467l.669.669c.346.346.519.519.72.642.18.11.374.19.579.24.23.055.474.055.964.055h1.349c.489 0 .733 0 .963-.055.205-.05.4-.13.579-.24.201-.123.374-.296.72-.642Z" stroke="currentColor" stroke-width="2" stroke-linecap="round" stroke-linejoin="round"/></svg>