<svg fill="none" xmlns="http://www.w3.org/2000/svg" viewBox="0 0 24 24"><path d="M5 5a3.5 3.5 0 0 1 3.5-3.5H12v7H8.5A3.5 3.5 0 0 1 5 5Zm0 14a3.5 3.5 0 0 1 3.5-3.5H12V19a3.5 3.5 0 1 1-7 0Zm7-7a3.5 3.5 0 1 1 7 0 3.5 3.5 0 0 1-7 0Z" opacity=".4" stroke="currentColor" stroke-width="2" stroke-linecap="round" stroke-linejoin="round"/><path d="M12 8.5H8.5a3.5 3.5 0 1 0 0 7H12v-7Zm0 0h3.5a3.5 3.5 0 1 0 0-7H12v7Z" stroke="currentColor" stroke-width="2" stroke-linecap="round" stroke-linejoin="round"/></svg>