<svg fill="none" xmlns="http://www.w3.org/2000/svg" viewBox="0 0 24 24"><path opacity=".4" d="M21 9.25h-9M21 4h-9m9 10.75H3M21 20H3" stroke="currentColor" stroke-width="2" stroke-linecap="round" stroke-linejoin="round"/><path d="M3 9.4c0 .515 0 .772.106.908a.5.5 0 0 0 .384.192c.172.003.378-.151.79-.46l3.867-2.9c.29-.217.434-.326.486-.459a.5.5 0 0 0 0-.362c-.052-.133-.197-.242-.486-.459L4.28 2.96c-.412-.309-.618-.464-.79-.46a.5.5 0 0 0-.384.192C3 2.827 3 3.085 3 3.6v5.8Z" stroke="currentColor" stroke-width="2" stroke-linecap="round" stroke-linejoin="round"/></svg>