<svg fill="none" xmlns="http://www.w3.org/2000/svg" viewBox="0 0 24 24"><path opacity=".4" d="M21 9.25h-9M21 4H3m18 10.75h-9M21 20H3" stroke="currentColor" stroke-width="2" stroke-linecap="round" stroke-linejoin="round"/><path d="M3 15c0 .515 0 .773.106.908a.5.5 0 0 0 .384.192c.172.003.378-.151.79-.46l3.867-2.9c.29-.217.434-.326.486-.459a.5.5 0 0 0 0-.362c-.052-.133-.197-.242-.486-.459L4.28 8.56c-.412-.309-.618-.463-.79-.46a.5.5 0 0 0-.384.192C3 8.428 3 8.685 3 9.2V15Z" stroke="currentColor" stroke-width="2" stroke-linecap="round" stroke-linejoin="round"/></svg>