<svg fill="none" xmlns="http://www.w3.org/2000/svg" viewBox="0 0 24 24"><path opacity=".4" d="M15.01 3.5V2m3.94 3.06L20.01 4m-1.06 9 1.06 1.06m-9-9L9.95 4m10.56 5h1.5" stroke="currentColor" stroke-width="2" stroke-linecap="round" stroke-linejoin="round"/><path d="m13 14-3-3m-3.869 9.869 9.238-9.238c.396-.396.594-.594.668-.822a1 1 0 0 0 0-.618c-.074-.229-.272-.427-.668-.823l-.737-.737c-.397-.396-.595-.594-.823-.668a1 1 0 0 0-.618 0c-.228.074-.426.272-.822.668L3.13 17.87c-.396.396-.594.593-.668.822a1 1 0 0 0 0 .618c.074.228.272.426.668.822l.738.738c.396.396.594.593.822.668a1 1 0 0 0 .618 0c.228-.075.426-.272.822-.668Z" stroke="currentColor" stroke-width="2" stroke-linecap="round" stroke-linejoin="round"/></svg>