<svg fill="none" xmlns="http://www.w3.org/2000/svg" viewBox="0 0 24 24"><path opacity=".4" d="M3 13h17" stroke="currentColor" stroke-width="2" stroke-linecap="round" stroke-linejoin="round"/><path d="M12 3.5 10.5 2m1 1 8.869 8.869c.396.396.594.594.668.822a1 1 0 0 1 0 .618c-.074.228-.272.426-.668.822l-5.475 5.475c-1.188 1.188-1.782 1.782-2.467 2.004a3 3 0 0 1-1.854 0c-.685-.222-1.279-.816-2.467-2.004l-3.212-3.212c-1.188-1.188-1.782-1.782-2.004-2.467a3 3 0 0 1 0-1.854c.222-.685.816-1.28 2.004-2.467L11.5 3Z" stroke="currentColor" stroke-width="2" stroke-linecap="round" stroke-linejoin="round"/></svg>