<svg fill="none" xmlns="http://www.w3.org/2000/svg" viewBox="0 0 24 24"><path fill-rule="evenodd" clip-rule="evenodd" d="M11.207 1.293a1 1 0 0 0-1.414 1.414l.293.293-5.928 5.928c-.57.569-1.04 1.039-1.39 1.453-.366.43-.661.865-.83 1.383a4 4 0 0 0 0 2.472c.169.518.464.953.83 1.383.35.414.82.884 1.39 1.453l3.27 3.27c.57.57 1.039 1.04 1.453 1.39.43.365.865.661 1.383.83a3.999 3.999 0 0 0 2.472 0c.518-.169.953-.465 1.383-.83.414-.35.884-.82 1.453-1.39l5.526-5.526c.179-.179.353-.352.488-.512.148-.175.308-.396.402-.686.13-.402.13-.835 0-1.236a2.021 2.021 0 0 0-.402-.687c-.135-.159-.31-.333-.488-.511l-8.89-8.891a.74.74 0 0 0-.013-.012l-.988-.988Zm.293 3.121-5.899 5.899c-.605.605-1.017 1.018-1.309 1.362A4.087 4.087 0 0 0 4.04 12h15.046L11.5 4.414Z" fill="currentColor"/></svg>