<svg fill="none" xmlns="http://www.w3.org/2000/svg" viewBox="0 0 24 24"><path opacity=".4" d="M20.131 10.868c-.396.396-.594.595-.822.669a1 1 0 0 1-.618 0c-.228-.075-.426-.273-.822-.669l-4.737-4.737c-.397-.396-.595-.594-.669-.822a1 1 0 0 1 0-.618c.074-.228.272-.426.669-.823l.737-.737c.396-.396.594-.594.822-.668a1 1 0 0 1 .618 0c.228.074.426.272.822.668l4.738 4.737c.396.396.594.595.668.823a1 1 0 0 1 0 .618c-.074.228-.272.426-.668.822l-.738.737Z" stroke="currentColor" stroke-width="2" stroke-linecap="round" stroke-linejoin="round"/><path d="M2 22 5.26 8.493c.087-.36.13-.54.225-.684a1 1 0 0 1 .325-.312c.147-.088.329-.125.692-.197L13 6l5 5-1.3 6.498c-.072.363-.108.545-.197.692a1 1 0 0 1-.312.325c-.144.094-.324.138-.684.225L2 22Zm0 0 7.586-7.586M11 11a2 2 0 1 1 0 4 2 2 0 0 1 0-4Z" stroke="currentColor" stroke-width="2" stroke-linecap="round" stroke-linejoin="round"/></svg>