<svg fill="none" xmlns="http://www.w3.org/2000/svg" viewBox="0 0 24 24"><path opacity=".4" d="m18 2 4 4" stroke="currentColor" stroke-width="2" stroke-linecap="round" stroke-linejoin="round"/><path d="M6.68 20.724c.305-.084.458-.125.6-.19.127-.056.247-.126.36-.207.125-.092.237-.204.46-.428L18.435 9.566c.198-.198.297-.297.334-.412a.499.499 0 0 0 0-.309c-.037-.114-.136-.213-.334-.41l-2.868-2.87c-.198-.197-.297-.296-.412-.334a.5.5 0 0 0-.309 0c-.114.038-.213.137-.41.335L4.1 15.899c-.224.224-.336.336-.428.462a2.001 2.001 0 0 0-.208.358c-.064.143-.105.295-.189.6L2 22l4.68-1.275Z" stroke="currentColor" stroke-width="2" stroke-linecap="round" stroke-linejoin="round"/></svg>