<svg fill="none" xmlns="http://www.w3.org/2000/svg" viewBox="0 0 24 24"><path opacity=".4" d="M4.558 16.149c.147-.383.221-.575.347-.662a.5.5 0 0 1 .38-.08c.15.028.295.173.585.463l2.26 2.26c.29.29.435.435.464.586a.5.5 0 0 1-.08.379c-.089.126-.28.2-.663.347L2.5 21.5l2.058-5.351Z" stroke="currentColor" stroke-width="2" stroke-linecap="round" stroke-linejoin="round"/><path d="M4.634 15.95c.137-.354.205-.532.294-.698.08-.147.17-.288.273-.42.116-.15.25-.284.52-.553L17 3a2.828 2.828 0 0 1 4 4L9.72 18.28c-.269.27-.403.404-.552.52a3.005 3.005 0 0 1-.42.273c-.166.089-.344.157-.699.294L2.5 21.5l2.134-5.55Z" stroke="currentColor" stroke-width="2" stroke-linecap="round" stroke-linejoin="round"/></svg>