<svg fill="none" xmlns="http://www.w3.org/2000/svg" viewBox="0 0 24 24"><path opacity=".4" d="M12 3v3m0 4.5v3m0 4.5v3" stroke="currentColor" stroke-width="2" stroke-linecap="round" stroke-linejoin="round"/><path d="M2 15.376c0 .521 0 .782.107.918a.5.5 0 0 0 .387.19c.173.003.38-.156.794-.474l4.388-3.376c.28-.216.42-.323.47-.455a.5.5 0 0 0 0-.358c-.05-.131-.19-.24-.47-.455L3.288 7.991c-.414-.318-.62-.477-.794-.475a.5.5 0 0 0-.387.19C2 7.842 2 8.103 2 8.625v6.75Zm20 0c0 .521 0 .782-.108.918a.5.5 0 0 1-.386.19c-.173.003-.38-.156-.794-.474l-4.388-3.376c-.28-.216-.42-.323-.47-.455a.5.5 0 0 1 0-.358c.05-.131.19-.24.47-.455l4.388-3.375c.414-.318.62-.477.794-.475a.5.5 0 0 1 .386.19c.108.136.108.397.108.919v6.75Z" stroke="currentColor" stroke-width="2" stroke-linecap="round" stroke-linejoin="round"/></svg>