<svg fill="none" xmlns="http://www.w3.org/2000/svg" viewBox="0 0 24 24"><path opacity=".4" d="M12 9.25H3M12 4H3m18 10.75H3M21 20H3" stroke="currentColor" stroke-width="2" stroke-linecap="round" stroke-linejoin="round"/><path d="M21 9.4c0 .515 0 .772-.106.908a.5.5 0 0 1-.384.192c-.172.003-.378-.151-.79-.46l-3.867-2.9c-.29-.217-.434-.326-.486-.459a.5.5 0 0 1 0-.362c.052-.133.197-.242.486-.459l3.867-2.9c.412-.309.618-.464.79-.46a.5.5 0 0 1 .384.192c.106.135.106.393.106.908v5.8Z" stroke="currentColor" stroke-width="2" stroke-linecap="round" stroke-linejoin="round"/></svg>