<svg fill="none" xmlns="http://www.w3.org/2000/svg" viewBox="0 0 24 24"><path opacity=".4" d="M12 15v-.8c0-1.12 0-1.68.218-2.108a2 2 0 0 1 .874-.874C13.52 11 14.08 11 15.2 11h3.6c1.12 0 1.68 0 2.108-.218a2 2 0 0 0 .874-.874C22 9.48 22 8.92 22 7.8v-.3c0-.932 0-1.398-.152-1.765a2 2 0 0 0-1.083-1.083C20.398 4.5 19.932 4.5 19 4.5" stroke="currentColor" stroke-width="2" stroke-linecap="round" stroke-linejoin="round"/><path d="M3 4.5c0-.465 0-.697.038-.89A2 2 0 0 1 4.61 2.038C4.803 2 5.035 2 5.5 2h11c.465 0 .697 0 .89.038a2 2 0 0 1 1.572 1.572c.038.193.038.425.038.89s0 .697-.038.89a2 2 0 0 1-1.572 1.572C17.197 7 16.965 7 16.5 7h-11c-.465 0-.697 0-.89-.038A2 2 0 0 1 3.038 5.39C3 5.197 3 4.965 3 4.5Zm7 12.1c0-.56 0-.84.109-1.054a1 1 0 0 1 .437-.437C10.76 15 11.04 15 11.6 15h.8c.56 0 .84 0 1.054.109a1 1 0 0 1 .437.437C14 15.76 14 16.04 14 16.6v3.8c0 .56 0 .84-.109 1.054a1 1 0 0 1-.437.437C13.24 22 12.96 22 12.4 22h-.8c-.56 0-.84 0-1.054-.109a1 1 0 0 1-.437-.437C10 21.24 10 20.96 10 20.4v-3.8Z" stroke="currentColor" stroke-width="2" stroke-linecap="round" stroke-linejoin="round"/></svg>