<svg fill="none" xmlns="http://www.w3.org/2000/svg" viewBox="0 0 24 24"><path opacity=".4" d="M14 22H6.8c-1.68 0-2.52 0-3.162-.327a3 3 0 0 1-1.311-1.311C2 19.72 2 18.88 2 17.2V10m8-8h4m8 8v4m-4 8c.93 0 1.395 0 1.776-.102a3 3 0 0 0 2.122-2.122C22 19.395 22 18.93 22 18m0-12c0-.93 0-1.395-.102-1.776a3 3 0 0 0-2.122-2.122C19.395 2 18.93 2 18 2M6 2c-.93 0-1.395 0-1.776.102a3 3 0 0 0-2.122 2.122C2 4.605 2 5.07 2 6" stroke="currentColor" stroke-width="2" stroke-linecap="round" stroke-linejoin="round"/><path d="M2 16.8c0-1.68 0-2.52.327-3.162a3 3 0 0 1 1.311-1.311C4.28 12 5.12 12 6.8 12h.4c1.68 0 2.52 0 3.162.327a3 3 0 0 1 1.311 1.311C12 14.28 12 15.12 12 16.8v.4c0 1.68 0 2.52-.327 3.162a3 3 0 0 1-1.311 1.311C9.72 22 8.88 22 7.2 22h-.4c-1.68 0-2.52 0-3.162-.327a3 3 0 0 1-1.311-1.311C2 19.72 2 18.88 2 17.2v-.4Z" stroke="currentColor" stroke-width="2" stroke-linecap="round" stroke-linejoin="round"/></svg>