<svg fill="none" xmlns="http://www.w3.org/2000/svg" viewBox="0 0 24 24"><path opacity=".4" d="m19.714 7-1.428 10M6.143 7 4.357 17M18 5H8m8 14H6" stroke="currentColor" stroke-width="2" stroke-linecap="round" stroke-linejoin="round"/><path d="M4 4.6c0-.56 0-.84.109-1.054a1 1 0 0 1 .437-.437C4.76 3 5.04 3 5.6 3h.8c.56 0 .84 0 1.054.109a1 1 0 0 1 .437.437C8 3.76 8 4.04 8 4.6v.8c0 .56 0 .84-.109 1.054a1 1 0 0 1-.437.437C7.24 7 6.96 7 6.4 7h-.8c-.56 0-.84 0-1.054-.109a1 1 0 0 1-.437-.437C4 6.24 4 5.96 4 5.4v-.8Zm-2 14c0-.56 0-.84.109-1.054a1 1 0 0 1 .437-.437C2.76 17 3.04 17 3.6 17h.8c.56 0 .84 0 1.054.109a1 1 0 0 1 .437.437C6 17.76 6 18.04 6 18.6v.8c0 .56 0 .84-.109 1.054a1 1 0 0 1-.437.437C5.24 21 4.96 21 4.4 21h-.8c-.56 0-.84 0-1.054-.109a1 1 0 0 1-.437-.437C2 20.24 2 19.96 2 19.4v-.8Zm16-14c0-.56 0-.84.109-1.054a1 1 0 0 1 .437-.437C18.76 3 19.04 3 19.6 3h.8c.56 0 .84 0 1.054.109a1 1 0 0 1 .437.437C22 3.76 22 4.04 22 4.6v.8c0 .56 0 .84-.109 1.054a1 1 0 0 1-.437.437C21.24 7 20.96 7 20.4 7h-.8c-.56 0-.84 0-1.054-.109a1 1 0 0 1-.437-.437C18 6.24 18 5.96 18 5.4v-.8Zm-2 14c0-.56 0-.84.109-1.054a1 1 0 0 1 .437-.437C16.76 17 17.04 17 17.6 17h.8c.56 0 .84 0 1.054.109a1 1 0 0 1 .437.437C20 17.76 20 18.04 20 18.6v.8c0 .56 0 .84-.109 1.054a1 1 0 0 1-.437.437C19.24 21 18.96 21 18.4 21h-.8c-.56 0-.84 0-1.054-.109a1 1 0 0 1-.437-.437C16 20.24 16 19.96 16 19.4v-.8Z" stroke="currentColor" stroke-width="2" stroke-linecap="round" stroke-linejoin="round"/></svg>