<svg fill="none" xmlns="http://www.w3.org/2000/svg" viewBox="0 0 24 24"><path opacity=".4" d="M19 7v10M5 7v10M17 5H7m10 14H7" stroke="currentColor" stroke-width="2" stroke-linecap="round" stroke-linejoin="round"/><path d="M3 4.6c0-.56 0-.84.109-1.054a1 1 0 0 1 .437-.437C3.76 3 4.04 3 4.6 3h.8c.56 0 .84 0 1.054.109a1 1 0 0 1 .437.437C7 3.76 7 4.04 7 4.6v.8c0 .56 0 .84-.109 1.054a1 1 0 0 1-.437.437C6.24 7 5.96 7 5.4 7h-.8c-.56 0-.84 0-1.054-.109a1 1 0 0 1-.437-.437C3 6.24 3 5.96 3 5.4v-.8Zm0 14c0-.56 0-.84.109-1.054a1 1 0 0 1 .437-.437C3.76 17 4.04 17 4.6 17h.8c.56 0 .84 0 1.054.109a1 1 0 0 1 .437.437C7 17.76 7 18.04 7 18.6v.8c0 .56 0 .84-.109 1.054a1 1 0 0 1-.437.437C6.24 21 5.96 21 5.4 21h-.8c-.56 0-.84 0-1.054-.109a1 1 0 0 1-.437-.437C3 20.24 3 19.96 3 19.4v-.8Zm14-14c0-.56 0-.84.109-1.054a1 1 0 0 1 .437-.437C17.76 3 18.04 3 18.6 3h.8c.56 0 .84 0 1.054.109a1 1 0 0 1 .437.437C21 3.76 21 4.04 21 4.6v.8c0 .56 0 .84-.109 1.054a1 1 0 0 1-.437.437C20.24 7 19.96 7 19.4 7h-.8c-.56 0-.84 0-1.054-.109a1 1 0 0 1-.437-.437C17 6.24 17 5.96 17 5.4v-.8Zm0 14c0-.56 0-.84.109-1.054a1 1 0 0 1 .437-.437C17.76 17 18.04 17 18.6 17h.8c.56 0 .84 0 1.054.109a1 1 0 0 1 .437.437C21 17.76 21 18.04 21 18.6v.8c0 .56 0 .84-.109 1.054a1 1 0 0 1-.437.437C20.24 21 19.96 21 19.4 21h-.8c-.56 0-.84 0-1.054-.109a1 1 0 0 1-.437-.437C17 20.24 17 19.96 17 19.4v-.8Z" stroke="currentColor" stroke-width="2" stroke-linecap="round" stroke-linejoin="round"/></svg>