<svg fill="none" xmlns="http://www.w3.org/2000/svg" viewBox="0 0 24 24"><path opacity=".4" d="M9 21H4.6c-.56 0-.84 0-1.054-.109a1 1 0 0 1-.437-.437C3 20.24 3 19.96 3 19.4V4.6c0-.56 0-.84.109-1.054a1 1 0 0 1 .437-.437C3.76 3 4.04 3 4.6 3h2.8c.56 0 .84 0 1.054.109a1 1 0 0 1 .437.437C9 3.76 9 4.04 9 4.6V8m6 3h4.4c.56 0 .84 0 1.054.109a1 1 0 0 1 .437.437C21 11.76 21 12.04 21 12.6v6.8c0 .56 0 .84-.109 1.054a1 1 0 0 1-.437.437C20.24 21 19.96 21 19.4 21H15" stroke="currentColor" stroke-width="2" stroke-linecap="round" stroke-linejoin="round"/><path d="M15 8.6c0-.56 0-.84-.109-1.054a1 1 0 0 0-.437-.437C14.24 7 13.96 7 13.4 7h-2.8c-.56 0-.84 0-1.054.109a1 1 0 0 0-.437.437C9 7.76 9 8.04 9 8.6V21h6V8.6Z" stroke="currentColor" stroke-width="2" stroke-linecap="round" stroke-linejoin="round"/></svg>