<svg fill="none" xmlns="http://www.w3.org/2000/svg" viewBox="0 0 24 24"><path opacity=".4" d="M12 22c5.523 0 10-4.477 10-10S17.523 2 12 2 2 6.477 2 12s4.477 10 10 10Z" stroke="currentColor" stroke-width="2" stroke-linecap="round" stroke-linejoin="round"/><path d="m18 10-3.434 3.434c-.198.198-.297.297-.412.334a.499.499 0 0 1-.309 0c-.114-.037-.213-.136-.41-.334l-2.87-2.868c-.197-.198-.296-.297-.41-.334a.499.499 0 0 0-.31 0c-.114.037-.213.136-.41.334L6 14" stroke="currentColor" stroke-width="2" stroke-linecap="round" stroke-linejoin="round"/></svg>