<svg fill="none" xmlns="http://www.w3.org/2000/svg" viewBox="0 0 24 24"><path fill-rule="evenodd" clip-rule="evenodd" d="M3 2a1 1 0 0 1 1 1v16.4a8.187 8.187 0 0 0 .011.588l.014.002c.116.01.278.01.575.01H21a1 1 0 1 1 0 2H4.568c-.252 0-.498 0-.706-.017a2.022 2.022 0 0 1-.77-.201 2 2 0 0 1-.874-.874 2.022 2.022 0 0 1-.201-.77C2 19.93 2 19.684 2 19.432V3a1 1 0 0 1 1-1Z" fill="currentColor"/><path fill-rule="evenodd" clip-rule="evenodd" d="M20.684 15.73a1 1 0 0 0 .046-1.414l-3.92-4.182c-.007-.01-.017-.02-.028-.031-.102-.112-.315-.345-.597-.474a1.5 1.5 0 0 0-.759-.13c-.31.028-.587.177-.72.248l-.038.02-3.123 1.621L7.73 7.316a1 1 0 0 0-1.46 1.368l3.92 4.182c.007.01.017.02.028.031.102.112.315.345.597.474a1.5 1.5 0 0 0 .759.13c.31-.028.587-.177.72-.248l.038-.02 3.123-1.621 3.815 4.072a1 1 0 0 0 1.414.046Z" fill="currentColor"/></svg>