<svg fill="none" xmlns="http://www.w3.org/2000/svg" viewBox="0 0 24 24"><path opacity=".4" d="M2.532 10.315a.531.531 0 0 1 .154-.413c.13-.123.34-.138.76-.168.24-.017.484-.025.729-.025 5.587 0 10.117 4.53 10.117 10.117 0 .244-.009.487-.026.728-.03.42-.045.63-.167.76a.532.532 0 0 1-.414.154" stroke="currentColor" stroke-width="2" stroke-linecap="round" stroke-linejoin="round"/><path d="M22 12.117C22 6.53 17.47 2 11.883 2 7.348 2 3.51 4.984 2.225 9.095c-.082.264-.124.395-.12.56.003.134.044.3.103.42.073.147.186.26.411.485L13.44 21.38c.226.226.338.339.486.412.12.059.285.1.42.103.164.004.296-.037.56-.12C19.015 20.49 22 16.652 22 12.117Z" stroke="currentColor" stroke-width="2" stroke-linecap="round" stroke-linejoin="round"/></svg>