<svg fill="none" xmlns="http://www.w3.org/2000/svg" viewBox="0 0 24 24"><path opacity=".4" d="M19.532 18.24c1.03.198 1.545.297 1.8.207a.872.872 0 0 0 .532-.44c.136-.233.136-.687.136-1.596V5.663c0-.18 0-.27-.06-.435a1.463 1.463 0 0 0-.25-.384.708.708 0 0 0-.258-.179C20.773 4.375 19.45 4 17 4c-4 0-7 2-10 2a13.44 13.44 0 0 1-2.532-.24c-1.03-.198-1.545-.297-1.8-.207a.871.871 0 0 0-.532.44C2 6.225 2 6.68 2 7.588v10.748c0 .18 0 .27.06.435.035.099.174.311.25.384.126.12.17.14.258.179C3.227 19.625 4.55 20 7 20c4 0 7-2 10-2 .956 0 1.811.102 2.532.24Z" stroke="currentColor" stroke-width="2" stroke-linecap="round" stroke-linejoin="round"/><path d="M6 11v4m12-6v4m-3.5-1a2.5 2.5 0 1 1-5 0 2.5 2.5 0 0 1 5 0Z" stroke="currentColor" stroke-width="2" stroke-linecap="round" stroke-linejoin="round"/></svg>