<svg fill="none" xmlns="http://www.w3.org/2000/svg" viewBox="0 0 24 24"><path opacity=".4" d="M13 5c0 1.105-2.462 2-5.5 2S2 6.105 2 5m11 0c0-1.105-2.462-2-5.5-2S2 3.895 2 5m11 0v9c-.628.835-1 1.874-1 3 0 .825.2 1.604.554 2.29-.842.712-2.788 1.21-5.054 1.21-3.038 0-5.5-.895-5.5-2V5m0 9c0 1.105 2.462 2 5.5 2 2.189 0 4.08-.465 4.965-1.138M13 9.5c0 1.105-2.462 2-5.5 2S2 10.605 2 9.5" stroke="currentColor" stroke-width="2" stroke-linecap="round" stroke-linejoin="round"/><path d="M17 22a5 5 0 1 0 0-10 5 5 0 0 0 0 10Z" stroke="currentColor" stroke-width="2" stroke-linecap="round" stroke-linejoin="round"/></svg>