<svg fill="none" xmlns="http://www.w3.org/2000/svg" viewBox="0 0 24 24"><path opacity=".4" d="M13 5c0 1.105-2.462 2-5.5 2S2 6.105 2 5m11 0c0-1.105-2.462-2-5.5-2S2 3.895 2 5m11 0v4.457c-1.222.367-2 .922-2 1.543v7.543c-.95.285-2.17.457-3.5.457-3.038 0-5.5-.895-5.5-2V5m0 4c0 1.105 2.462 2 5.5 2 1.33 0 2.55-.172 3.5-.457M2 13c0 1.105 2.462 2 5.5 2 1.33 0 2.55-.172 3.5-.457" stroke="currentColor" stroke-width="2" stroke-linecap="round" stroke-linejoin="round"/><path d="M22 11c0 1.105-2.462 2-5.5 2s-5.5-.895-5.5-2m11 0c0-1.105-2.462-2-5.5-2s-5.5.895-5.5 2m11 0v8c0 1.105-2.462 2-5.5 2s-5.5-.895-5.5-2v-8m11 4c0 1.105-2.462 2-5.5 2s-5.5-.895-5.5-2" stroke="currentColor" stroke-width="2" stroke-linecap="round" stroke-linejoin="round"/></svg>