<svg fill="none" xmlns="http://www.w3.org/2000/svg" viewBox="0 0 24 24"><path opacity=".4" d="m2 2 2 2m18-2-2 2m2 18-2-2M2 22l2-2m-2-4h1.5M8 2v1.5M22 8h-1.5M16 22v-1.5m2-4.5h3.5M16 2v4M2 8h4m2 14v-4" stroke="currentColor" stroke-width="2" stroke-linecap="round" stroke-linejoin="round"/><path d="m7.566 11.434 3.868-3.868c.198-.198.297-.297.412-.335a.5.5 0 0 1 .309 0c.114.038.213.137.41.335l3.87 3.868c.197.198.296.297.333.411a.5.5 0 0 1 0 .31c-.037.114-.136.213-.334.41l-3.868 3.87c-.198.197-.297.296-.412.333a.499.499 0 0 1-.309 0c-.114-.037-.213-.136-.41-.334l-3.87-3.868c-.197-.198-.296-.297-.333-.412a.5.5 0 0 1 0-.309c.037-.114.136-.213.334-.41Z" stroke="currentColor" stroke-width="2" stroke-linecap="round" stroke-linejoin="round"/></svg>