<svg fill="none" xmlns="http://www.w3.org/2000/svg" viewBox="0 0 24 24"><path opacity=".4" d="M17.878 20.09a10 10 0 0 1-11.756 0M16.384 3.012a10 10 0 0 1 5.519 10.38m-19.806 0a10 10 0 0 1 5.52-10.38" stroke="currentColor" stroke-width="2" stroke-linecap="round" stroke-linejoin="round"/><path d="m6.566 11.434 4.868-4.868c.198-.198.297-.297.412-.335a.5.5 0 0 1 .309 0c.114.038.213.137.41.335l4.87 4.868c.197.198.296.297.333.411a.5.5 0 0 1 0 .31c-.037.114-.136.213-.334.41l-4.868 4.87c-.198.197-.297.296-.412.333a.499.499 0 0 1-.309 0c-.114-.037-.213-.136-.41-.334l-4.87-4.868c-.197-.198-.296-.297-.333-.412a.5.5 0 0 1 0-.309c.037-.114.136-.213.334-.41Z" stroke="currentColor" stroke-width="2" stroke-linecap="round" stroke-linejoin="round"/></svg>