<svg fill="none" xmlns="http://www.w3.org/2000/svg" viewBox="0 0 24 24"><path d="M8.055 3.91a1 1 0 0 0-.877-1.797 11 11 0 0 0-6.07 11.418 1 1 0 0 0 1.98-.279 9 9 0 0 1 4.967-9.341Zm7.43-1.336a1 1 0 0 1 1.337-.46 11 11 0 0 1 6.07 11.417 1 1 0 1 1-1.98-.279 9 9 0 0 0-4.967-9.341 1 1 0 0 1-.46-1.337ZM5.313 19.503a1 1 0 0 1 1.397-.222 9 9 0 0 0 10.58 0 1 1 0 1 1 1.176 1.618 11 11 0 0 1-12.932 0 1 1 0 0 1-.22-1.396Zm7.663-13.927a1.508 1.508 0 0 0-.513-.296 1.5 1.5 0 0 0-.926 0 1.506 1.506 0 0 0-.513.296c-.096.081-.196.182-.28.266l-4.902 4.901c-.084.085-.185.185-.266.281-.094.111-.22.28-.295.512a1.5 1.5 0 0 0 0 .927c.075.233.2.402.295.513.081.096.182.196.266.28l4.901 4.902c.085.084.185.185.281.266.111.094.28.22.513.295a1.5 1.5 0 0 0 .926 0c.233-.075.402-.2.513-.295.096-.081.196-.182.28-.266l4.902-4.902c.084-.084.185-.184.266-.28.094-.111.22-.28.296-.513a1.5 1.5 0 0 0 0-.927 1.508 1.508 0 0 0-.296-.512c-.081-.096-.182-.196-.266-.28l-4.902-4.902c-.084-.084-.184-.185-.28-.266Z" fill="currentColor"/></svg>