<svg fill="none" xmlns="http://www.w3.org/2000/svg" viewBox="0 0 24 24"><path d="M9.527 5.354c-.36.392-.642.995-.643 1.945.012.845.364 1.449.893 2.354l.04.069c.427.732.918 1.607 1.105 2.778H15a1 1 0 1 1 0 2h-4.057c-.225 1.945-1.068 3.54-1.88 4.673a17.47 17.47 0 0 1-.243.327h8.68a1 1 0 1 1 0 2h-11a1 1 0 0 1-.62-1.784l.001-.001.02-.017.091-.078c.082-.071.203-.181.351-.328.297-.294.696-.729 1.094-1.284.653-.91 1.277-2.104 1.488-3.508H6.5a1 1 0 1 1 0-2h2.384c-.155-.639-.45-1.18-.795-1.77a52.77 52.77 0 0 0-.098-.167c-.486-.827-1.09-1.854-1.107-3.245v-.013c0-1.379.422-2.492 1.174-3.307.74-.802 1.722-1.23 2.706-1.403 1.906-.335 4.134.242 5.377 1.423a1 1 0 1 1-1.378 1.45c-.709-.674-2.264-1.147-3.653-.904-.665.117-1.208.385-1.582.79Z" fill="currentColor"/></svg>