<svg fill="none" xmlns="http://www.w3.org/2000/svg" viewBox="0 0 24 24"><path opacity=".4" d="M8.207 7.688A3.5 3.5 0 1 1 14.965 7" stroke="currentColor" stroke-width="2" stroke-linecap="round" stroke-linejoin="round"/><path d="M5 13a6 6 0 0 1 6-6h4.387c.043 0 .064 0 .085-.002a.5.5 0 0 0 .055-.008l.08-.02 2.373-.679c.346-.099.52-.148.657-.11a.5.5 0 0 1 .288.218C19 6.52 19 6.7 19 7.06v1.11c0 .13 0 .196.014.253.013.054.03.096.059.144.03.05.082.102.186.207.49.494.895 1.072 1.19 1.711.092.2.138.3.195.359a.47.47 0 0 0 .203.13c.078.026.174.026.367.026.267 0 .4 0 .503.05a.5.5 0 0 1 .234.233c.049.103.049.236.049.503V15.2c0 .28 0 .42-.055.527a.5.5 0 0 1-.218.218C21.62 16 21.48 16 21.2 16h-.541c-.167 0-.25 0-.32.02a.464.464 0 0 0-.17.09c-.058.047-.111.124-.218.28a6.025 6.025 0 0 1-2.427 2.055c-.209.097-.313.145-.374.205a.462.462 0 0 0-.121.19c-.029.081-.029.182-.029.384v.976c0 .28 0 .42-.055.527a.5.5 0 0 1-.218.218C16.62 21 16.48 21 16.2 21h-1.9c-.28 0-.42 0-.527-.055a.5.5 0 0 1-.219-.218c-.054-.107-.054-.247-.054-.527v-.4c0-.28 0-.42-.055-.527a.5.5 0 0 0-.218-.219C13.12 19 12.98 19 12.7 19h-1.4c-.28 0-.42 0-.527.054a.5.5 0 0 0-.219.219c-.054.107-.054.247-.054.527v.4c0 .28 0 .42-.055.527a.5.5 0 0 1-.218.218C10.12 21 9.98 21 9.7 21H7.8c-.28 0-.42 0-.527-.055a.5.5 0 0 1-.219-.218C7 20.62 7 20.48 7 20.2v-2.37c0-.13 0-.196-.014-.253a.465.465 0 0 0-.059-.144 1.352 1.352 0 0 0-.186-.207A5.98 5.98 0 0 1 5 13Zm0 0H4a2 2 0 0 1-1-3.733" stroke="currentColor" stroke-width="2" stroke-linecap="round" stroke-linejoin="round"/></svg>