<svg fill="none" xmlns="http://www.w3.org/2000/svg" viewBox="0 0 24 24"><path opacity=".4" d="M5 13a5.98 5.98 0 0 0 1.74 4.226c.104.104.156.157.187.207.03.048.046.09.06.144.013.057.013.122.013.253v2.37c0 .28 0 .42.054.527a.5.5 0 0 0 .219.218C7.38 21 7.52 21 7.8 21h1.9c.28 0 .42 0 .527-.055a.5.5 0 0 0 .218-.218c.055-.107.055-.247.055-.527v-.4c0-.28 0-.42.054-.527a.5.5 0 0 1 .219-.219C10.88 19 11.02 19 11.3 19h1.4c.28 0 .42 0 .527.054a.5.5 0 0 1 .218.219c.055.107.055.247.055.527v.4c0 .28 0 .42.054.527a.5.5 0 0 0 .219.218c.107.055.247.055.527.055h1.9c.28 0 .42 0 .527-.055a.5.5 0 0 0 .218-.218C17 20.62 17 20.48 17 20.2v-.976c0-.202 0-.303.029-.384a.462.462 0 0 1 .121-.19c.061-.06.166-.108.374-.205a6.025 6.025 0 0 0 2.427-2.055c.107-.156.16-.233.217-.28a.464.464 0 0 1 .17-.09c.07-.02.154-.02.32-.02h.542c.28 0 .42 0 .527-.055a.5.5 0 0 0 .218-.218C22 15.62 22 15.48 22 15.2v-3.414c0-.267 0-.4-.05-.503a.5.5 0 0 0-.233-.234c-.103-.05-.236-.05-.503-.05-.193 0-.29 0-.367-.025a.464.464 0 0 1-.203-.13c-.057-.06-.103-.16-.195-.359a6.013 6.013 0 0 0-1.19-1.711 1.39 1.39 0 0 1-.186-.207.462.462 0 0 1-.06-.144C19 8.366 19 8.3 19 8.17V7.06c0-.36 0-.54-.075-.66a.5.5 0 0 0-.288-.218c-.137-.04-.31.01-.657.11l-2.372.677a.5.5 0 0 1-.136.029C15.45 7 15.43 7 15.388 7h-.429m-9.96 6a6 6 0 0 1 3.205-5.31M5 13H4a2 2 0 0 1-1-3.733" stroke="currentColor" stroke-width="2" stroke-linecap="round" stroke-linejoin="round"/><path d="M11.5 10a3.5 3.5 0 1 0 0-7 3.5 3.5 0 0 0 0 7Z" stroke="currentColor" stroke-width="2" stroke-linecap="round" stroke-linejoin="round"/></svg>