<svg fill="none" xmlns="http://www.w3.org/2000/svg" viewBox="0 0 24 24"><path opacity=".4" d="M16.283 21c1.811 0 2.716 0 3.385-.362a3 3 0 0 0 1.32-1.434c.304-.696.23-1.598.079-3.403l-.7-8.4c-.13-1.552-.194-2.329-.538-2.916a3 3 0 0 0-1.294-1.191C17.92 3 17.14 3 15.583 3H8.417c-1.558 0-2.337 0-2.951.294a3 3 0 0 0-1.295 1.19c-.344.588-.408 1.365-.538 2.917l-.7 8.4c-.15 1.805-.225 2.707.08 3.403a3 3 0 0 0 1.32 1.434C5 21 5.905 21 7.716 21h8.566Z" stroke="currentColor" stroke-width="2" stroke-linecap="round" stroke-linejoin="round"/><path d="M16 8a4 4 0 1 1-8 0" stroke="currentColor" stroke-width="2" stroke-linecap="round" stroke-linejoin="round"/></svg>