<svg fill="none" xmlns="http://www.w3.org/2000/svg" viewBox="0 0 24 24"><path fill-rule="evenodd" clip-rule="evenodd" d="M5.67 5.502a6.536 6.536 0 0 0-.478.02c-.272.025-.604.082-.92.278a2 2 0 0 0-.87 1.154c-.102.357-.066.693-.014.96.056.295.084.442.17.589.112.192.323.367.533.44.16.057.343.057.706.057h14.406c.363 0 .545 0 .706-.056.21-.074.421-.249.533-.441.086-.147.114-.294.17-.588.052-.268.088-.604-.014-.96a2 2 0 0 0-.87-1.155c-.316-.196-.649-.253-.92-.277a6.542 6.542 0 0 0-.478-.021 3.03 3.03 0 0 0-.692-3.117 2.946 2.946 0 0 0-2.102-.885C13.74 1.5 12.627 2.718 12 3.772 11.373 2.718 10.259 1.5 8.464 1.5c-.792 0-1.548.32-2.102.885a3.019 3.019 0 0 0-.692 3.117Zm2.12-1.716a.947.947 0 0 1 .675-.286c.81 0 1.434.576 1.92 1.475.095.176.178.354.25.525h-2.17c-.25 0-.493-.1-.675-.286A1.019 1.019 0 0 1 7.5 4.5c0-.271.106-.527.289-.714ZM13.366 5.5c.072-.171.155-.349.25-.525.486-.9 1.11-1.475 1.92-1.475.25 0 .493.1.675.286.183.187.289.443.289.714 0 .271-.106.527-.289.714a.947.947 0 0 1-.675.286h-2.17Z" fill="currentColor"/><path d="M21.232 11.777c-.17-.284-.255-.425-.372-.528a1 1 0 0 0-.356-.202C20.356 11 20.191 11 19.86 11H4.14c-.33 0-.496 0-.644.047a1 1 0 0 0-.356.202c-.117.103-.202.244-.372.528l-.548.913c-.361.601-.634 1.056-.78 1.558a4 4 0 0 0-.15 1.365c.033.521.201 1.024.424 1.69l.3.9c.337 1.015.59 1.778 1.08 2.363a4 4 0 0 0 1.604 1.156c.71.28 1.514.279 2.584.278h9.436c1.07 0 1.874.002 2.584-.277a4 4 0 0 0 1.604-1.157c.49-.585.743-1.348 1.08-2.363l.3-.9c.223-.666.39-1.169.424-1.69a4.01 4.01 0 0 0-.15-1.365c-.145-.502-.418-.957-.78-1.558l-.548-.913Z" fill="currentColor"/></svg>