<svg fill="none" xmlns="http://www.w3.org/2000/svg" viewBox="0 0 24 24"><path opacity=".4" d="M11.386 15.738c.21-.254.316-.38.443-.427a.5.5 0 0 1 .343 0c.126.047.232.173.443.427l3.292 3.95c.349.418.523.628.526.804a.5.5 0 0 1-.186.397c-.138.111-.41.111-.955.111H8.708c-.545 0-.817 0-.955-.111a.5.5 0 0 1-.185-.397c.002-.176.177-.386.526-.804l3.292-3.95Z" stroke="currentColor" stroke-width="2" stroke-linecap="round" stroke-linejoin="round"/><path d="M5 18a3 3 0 0 1-3-3V7.8c0-1.68 0-2.52.327-3.162a3 3 0 0 1 1.311-1.311C4.28 3 5.12 3 6.8 3h10.4c1.68 0 2.52 0 3.162.327a3 3 0 0 1 1.311 1.311C22 5.28 22 6.12 22 7.8V15a3 3 0 0 1-3 3" stroke="currentColor" stroke-width="2" stroke-linecap="round" stroke-linejoin="round"/></svg>