<svg fill="none" xmlns="http://www.w3.org/2000/svg" viewBox="0 0 24 24"><path fill-rule="evenodd" clip-rule="evenodd" d="M9.925 4.228a2 2 0 0 1 1.618.727c.32.387.393.864.424 1.212.033.363.033.824.033 1.35v8.965c0 .527 0 .988-.033 1.35-.03.349-.104.826-.424 1.213a2 2 0 0 1-1.618.727c-.501-.019-.907-.281-1.188-.489-.292-.216-.637-.523-1.03-.873l-5.052-4.49a9.723 9.723 0 0 1-.57-.532 2.032 2.032 0 0 1-.467-.726 2 2 0 0 1 0-1.325c.11-.313.297-.546.468-.725.156-.166.359-.345.57-.533l.025-.022L7.706 5.59c.394-.35.739-.657 1.031-.873.281-.208.687-.47 1.188-.489Zm11 0a2 2 0 0 1 1.618.727c.32.387.393.864.424 1.212.033.363.033.824.033 1.35v8.965c0 .527 0 .988-.033 1.35-.03.349-.104.826-.424 1.213a2 2 0 0 1-1.618.727c-.501-.019-.907-.281-1.188-.489-.292-.216-.637-.523-1.03-.873l-5.052-4.49a9.715 9.715 0 0 1-.57-.532 2.031 2.031 0 0 1-.467-.726 2 2 0 0 1 0-1.325c.11-.313.297-.546.468-.725.156-.166.359-.345.57-.533l.025-.022 5.025-4.467c.394-.35.739-.657 1.031-.873.281-.208.687-.47 1.188-.489Z" fill="currentColor"/></svg>