<svg fill="none" xmlns="http://www.w3.org/2000/svg" viewBox="0 0 24 24"><path opacity=".4" d="M11 16.437c0 1.13 0 1.695-.228 1.972a1 1 0 0 1-.81.363c-.358-.013-.78-.388-1.625-1.14l-4.992-4.436c-.465-.414-.698-.62-.783-.865a1 1 0 0 1 0-.662c.085-.245.318-.451.783-.865l4.992-4.437c.845-.75 1.267-1.126 1.626-1.14a1 1 0 0 1 .809.364c.228.277.228.842.228 1.972v8.874Z" stroke="currentColor" stroke-width="2" stroke-linecap="round" stroke-linejoin="round"/><path d="M22 16.437c0 1.13 0 1.695-.228 1.972a1 1 0 0 1-.81.363c-.358-.013-.78-.388-1.625-1.14l-4.992-4.436c-.465-.414-.698-.62-.783-.865a1 1 0 0 1 0-.662c.085-.245.318-.451.783-.865l4.992-4.437c.845-.75 1.267-1.126 1.625-1.14a1 1 0 0 1 .81.364c.228.277.228.842.228 1.972v8.874Z" stroke="currentColor" stroke-width="2" stroke-linecap="round" stroke-linejoin="round"/></svg>