<svg fill="none" xmlns="http://www.w3.org/2000/svg" viewBox="0 0 24 24"><path opacity=".4" d="M2 12h5m15 0h-5M2 7h5m10 0h5M2 17h5m10 0h5" stroke="currentColor" stroke-width="2" stroke-linecap="round" stroke-linejoin="round"/><path d="M7 22V2m10 20V2M7 12h10M6.8 22h10.4c1.68 0 2.52 0 3.162-.327a3 3 0 0 0 1.311-1.311C22 19.72 22 18.88 22 17.2V6.8c0-1.68 0-2.52-.327-3.162a3 3 0 0 0-1.311-1.311C19.72 2 18.88 2 17.2 2H6.8c-1.68 0-2.52 0-3.162.327a3 3 0 0 0-1.311 1.311C2 4.28 2 5.12 2 6.8v10.4c0 1.68 0 2.52.327 3.162a3 3 0 0 0 1.311 1.311C4.28 22 5.12 22 6.8 22Z" stroke="currentColor" stroke-width="2" stroke-linecap="round" stroke-linejoin="round"/></svg>