<svg fill="none" xmlns="http://www.w3.org/2000/svg" viewBox="0 0 24 24"><path opacity=".4" d="M13.55 5h-3.1c-2.625 0-3.937 0-4.968.497A5 5 0 0 0 3.32 7.511c-.57.992-.663 2.3-.85 4.919l-.246 3.444a2.918 2.918 0 0 0 5.152 2.076l.375-.45c.343-.412.515-.618.71-.784a3 3 0 0 1 1.436-.672c.252-.044.52-.044 1.056-.044h2.095c.536 0 .804 0 1.057.044a3 3 0 0 1 1.436.672c.195.166.367.372.71.784l.375.45a2.917 2.917 0 0 0 5.152-2.075l-.246-3.445c-.187-2.618-.28-3.927-.85-4.92a5 5 0 0 0-2.163-2.013C17.488 5 16.176 5 13.551 5Z" stroke="currentColor" stroke-width="2" stroke-linecap="round" stroke-linejoin="round"/><path d="M6 11h4M8 9v4m7-1h.01M18 10h.01" stroke="currentColor" stroke-width="2" stroke-linecap="round" stroke-linejoin="round"/></svg>