<svg fill="none" xmlns="http://www.w3.org/2000/svg" viewBox="0 0 24 24"><path opacity=".4" d="M2.085 12a2.61 2.61 0 0 1 .072-.248c.066-.199.16-.388.35-.766l2.166-4.333c.482-.963.723-1.444 1.082-1.796a3 3 0 0 1 1.12-.693C7.352 4 7.89 4 8.967 4h6.067c1.077 0 1.616 0 2.091.164a3 3 0 0 1 1.121.693c.36.352.6.833 1.082 1.796l2.166 4.333c.19.378.284.567.35.765.028.082.052.165.072.249" stroke="currentColor" stroke-width="2" stroke-linecap="round" stroke-linejoin="round"/><path d="M6 16h4m12-2.867V15.2c0 1.68 0 2.52-.327 3.162a3 3 0 0 1-1.311 1.311C19.72 20 18.88 20 17.2 20H6.8c-1.68 0-2.52 0-3.162-.327a3 3 0 0 1-1.311-1.311C2 17.72 2 16.88 2 15.2v-2.067c0-.422 0-.634.029-.84.014-.1.032-.197.056-.293h19.83c.024.096.042.194.056.292.029.207.029.418.029.841Z" stroke="currentColor" stroke-width="2" stroke-linecap="round" stroke-linejoin="round"/></svg>