<svg fill="none" xmlns="http://www.w3.org/2000/svg" viewBox="0 0 24 24"><path opacity=".4" d="M2 9.2c0-1.12 0-1.68.218-2.108a2 2 0 0 1 .874-.874C3.52 6 4.08 6 5.2 6h13.6c1.12 0 1.68 0 2.108.218a2 2 0 0 1 .874.874C22 7.52 22 8.08 22 9.2v5.6c0 1.12 0 1.68-.218 2.108a2 2 0 0 1-.874.874C20.48 18 19.92 18 18.8 18H5.2c-1.12 0-1.68 0-2.108-.218a2 2 0 0 1-.874-.874C2 16.48 2 15.92 2 14.8V9.2Z" stroke="currentColor" stroke-width="2" stroke-linecap="round" stroke-linejoin="round"/><path d="M7 14.5h10M6 10h.01M10 10h.01M14 10h.01M18 10h.01" stroke="currentColor" stroke-width="2" stroke-linecap="round" stroke-linejoin="round"/></svg>