<svg fill="none" xmlns="http://www.w3.org/2000/svg" viewBox="0 0 24 24"><path d="M6.161 3H17.84c.527 0 .981 0 1.356.03.395.033.788.104 1.167.297a3 3 0 0 1 1.31 1.311c.194.378.265.772.297 1.167.03.375.03.83.03 1.356V13.4c0 .56 0 .84-.108 1.054a1 1 0 0 1-.437.437C21.24 15 20.96 15 20.4 15H3.6c-.56 0-.84 0-1.054-.109a1 1 0 0 1-.437-.437c-.11-.214-.11-.494-.11-1.054V7.161c0-.527 0-.981.031-1.356.033-.395.104-.789.297-1.167a3 3 0 0 1 1.31-1.311c.38-.193.773-.264 1.168-.296C5.179 3 5.635 3 6.16 3ZM2.416 17c-.478 0-.717 0-.949.134-.17.098-.372.338-.44.523-.091.252-.06.427 0 .778.022.12.047.235.075.341a3 3 0 0 0 2.121 2.122C3.61 21 4.047 21 4.555 21h14.89c.508 0 .946.001 1.331-.102a3 3 0 0 0 2.122-2.122 4.11 4.11 0 0 0 .074-.34c.061-.352.092-.528 0-.78a1.182 1.182 0 0 0-.44-.522c-.231-.134-.47-.134-.95-.134H2.417Z" fill="currentColor"/></svg>