<svg fill="none" xmlns="http://www.w3.org/2000/svg" viewBox="0 0 24 24"><path opacity=".4" d="M21 16V7.2c0-1.12 0-1.68-.218-2.108a2 2 0 0 0-.874-.874C19.48 4 18.92 4 17.8 4H6.2c-1.12 0-1.68 0-2.108.218a2 2 0 0 0-.874.874C3 5.52 3 6.08 3 7.2V16" stroke="currentColor" stroke-width="2" stroke-linecap="round" stroke-linejoin="round"/><path d="M4.667 20h14.666c.62 0 .93 0 1.185-.068a2 2 0 0 0 1.414-1.414c.068-.255.068-.565.068-1.185 0-.31 0-.465-.034-.592a1 1 0 0 0-.707-.707C21.132 16 20.977 16 20.667 16h-5.004c-.245 0-.367 0-.482.028a.998.998 0 0 0-.29.12c-.1.061-.187.148-.36.32l-.062.063c-.173.173-.26.26-.36.322a.998.998 0 0 1-.29.12c-.115.027-.237.027-.482.027h-2.674c-.245 0-.367 0-.482-.028a.998.998 0 0 1-.29-.12c-.1-.061-.187-.148-.36-.32l-.062-.063c-.173-.173-.26-.26-.36-.322a.998.998 0 0 0-.29-.12C8.704 16 8.582 16 8.337 16H3.333c-.31 0-.465 0-.592.034a1 1 0 0 0-.707.707C2 16.868 2 17.023 2 17.333c0 .62 0 .93.068 1.185a2 2 0 0 0 1.414 1.414c.255.068.565.068 1.185.068Z" stroke="currentColor" stroke-width="2" stroke-linecap="round" stroke-linejoin="round"/></svg>