<svg fill="none" xmlns="http://www.w3.org/2000/svg" viewBox="0 0 24 24"><path opacity=".4" d="M15 16.5V19c0 .932 0 1.398-.152 1.765a2 2 0 0 1-1.083 1.083C13.398 22 12.932 22 12 22c-.932 0-1.398 0-1.765-.152a2 2 0 0 1-1.083-1.083C9 20.398 9 19.932 9 19v-2.5" stroke="currentColor" stroke-width="2" stroke-linecap="round" stroke-linejoin="round"/><path d="M12 2a7.5 7.5 0 0 0-7.5 7.5c0 3.075 1.851 5.843 4.5 7h6c2.649-1.157 4.5-3.925 4.5-7A7.5 7.5 0 0 0 12 2Z" stroke="currentColor" stroke-width="2" stroke-linecap="round" stroke-linejoin="round"/></svg>