<svg fill="none" xmlns="http://www.w3.org/2000/svg" viewBox="0 0 24 24"><path fill-rule="evenodd" clip-rule="evenodd" d="M5.636 1.222a1 1 0 0 1 0 1.414A9 9 0 0 0 5.29 15H11V9a1 1 0 1 1 2 0v6h5.709a9 9 0 0 0-.345-12.364 1 1 0 1 1 1.414-1.414c3.804 3.803 4.24 9.699 1.308 13.982l.062.024a3 3 0 0 1 1.624 1.624c.135.326.184.656.207.986.021.313.021.691.021 1.13v.064c0 .439 0 .817-.021 1.13-.023.33-.072.66-.207.986a3 3 0 0 1-1.624 1.624 3.069 3.069 0 0 1-.986.207c-.313.021-.691.021-1.13.021H4.968c-.439 0-.817 0-1.13-.021a3.07 3.07 0 0 1-.986-.207 3 3 0 0 1-1.624-1.624 3.069 3.069 0 0 1-.207-.985A17.822 17.822 0 0 1 1 19.033v-.065c0-.439 0-.817.021-1.13.023-.33.072-.66.207-.986a3 3 0 0 1 1.686-1.648C-.018 10.92.418 5.025 4.222 1.222a1 1 0 0 1 1.414 0Z" fill="currentColor"/><path d="M8.464 5.465A1 1 0 1 0 7.05 4.05a7 7 0 0 0 0 9.9 1 1 0 0 0 1.414-1.414 5 5 0 0 1 0-7.071ZM16.95 4.05a1 1 0 0 0-1.414 1.415 5 5 0 0 1 0 7.07 1 1 0 0 0 1.414 1.415 7 7 0 0 0 0-9.9Z" fill="currentColor"/></svg>