<svg fill="none" xmlns="http://www.w3.org/2000/svg" viewBox="0 0 24 24"><path d="M5.103 1.691A1 1 0 0 1 5.2 3.102a9 9 0 0 0-1.893 8.239 1 1 0 1 1-1.932.518 11 11 0 0 1 2.316-10.07 1 1 0 0 1 1.41-.098Zm2.97 4.213a1 1 0 1 0-1.569-1.24 7.002 7.002 0 0 0-1.265 6.153 1 1 0 0 0 1.932-.518 5.002 5.002 0 0 1 .902-4.395ZM16.091 4.5a1 1 0 0 0-.164 1.404 5.002 5.002 0 0 1 .902 4.395 1 1 0 1 0 1.932.518 7.002 7.002 0 0 0-1.265-6.154A1 1 0 0 0 16.09 4.5Zm4.214-2.71a1 1 0 0 0-1.51 1.312 9 9 0 0 1 1.894 8.239 1 1 0 1 0 1.932.518 11 11 0 0 0-2.316-10.07Z" fill="currentColor"/><path fill-rule="evenodd" clip-rule="evenodd" d="M13 9a1 1 0 1 0-2 0v5H5.161c-.527 0-.981 0-1.356.03-.395.033-.789.104-1.167.297a3 3 0 0 0-1.311 1.311c-.193.378-.264.772-.296 1.167C1 17.18 1 17.635 1 18.162v.677c0 .527 0 .982.03 1.356.033.395.104.789.297 1.167a3 3 0 0 0 1.311 1.311c.378.193.772.264 1.167.296.375.031.83.031 1.356.031H18.84c.527 0 .982 0 1.356-.03.395-.033.789-.104 1.167-.297a3 3 0 0 0 1.311-1.311c.193-.378.264-.772.296-1.167.031-.375.031-.83.031-1.356v-.678c0-.527 0-.982-.03-1.356-.033-.395-.104-.789-.297-1.167a3 3 0 0 0-1.311-1.311c-.378-.193-.772-.264-1.167-.296C19.82 14 19.365 14 18.838 14H13V9Zm-7.5 8.5a1 1 0 1 0 0 2h4a1 1 0 1 0 0-2h-4Z" fill="currentColor"/></svg>