<svg fill="none" xmlns="http://www.w3.org/2000/svg" viewBox="0 0 24 24"><path opacity=".4" d="M9 17v4h6v-4" stroke="currentColor" stroke-width="2" stroke-linecap="round" stroke-linejoin="round"/><path d="M2 6.2c0-1.12 0-1.68.218-2.108a2 2 0 0 1 .874-.874C3.52 3 4.08 3 5.2 3h13.6c1.12 0 1.68 0 2.108.218a2 2 0 0 1 .874.874C22 4.52 22 5.08 22 6.2v7.6c0 1.12 0 1.68-.218 2.108a2 2 0 0 1-.874.874C20.48 17 19.92 17 18.8 17H5.2c-1.12 0-1.68 0-2.108-.218a2 2 0 0 1-.874-.874C2 15.48 2 14.92 2 13.8V6.2Z" stroke="currentColor" stroke-width="2" stroke-linecap="round" stroke-linejoin="round"/></svg>