<svg fill="none" xmlns="http://www.w3.org/2000/svg" viewBox="0 0 24 24"><path opacity=".4" d="M9 18V6.355c0-.481 0-.722.088-.917a1 1 0 0 1 .358-.424c.178-.118.416-.158.891-.237l8.8-1.467c.64-.106.961-.16 1.211-.067a1 1 0 0 1 .52.44c.132.231.132.556.132 1.206V16" stroke="currentColor" stroke-width="2" stroke-linecap="round" stroke-linejoin="round"/><path d="M6 21a3 3 0 1 0 0-6 3 3 0 0 0 0 6Zm12-2a3 3 0 1 0 0-6 3 3 0 0 0 0 6Z" stroke="currentColor" stroke-width="2" stroke-linecap="round" stroke-linejoin="round"/></svg>