<svg fill="none" xmlns="http://www.w3.org/2000/svg" viewBox="0 0 24 24"><path d="M5.636 2.222a1 1 0 0 1 0 1.414 9 9 0 0 0 0 12.728 1 1 0 1 1-1.414 1.414c-4.296-4.296-4.296-11.26 0-15.556a1 1 0 0 1 1.414 0Z" fill="currentColor"/><path d="M8.464 6.465A1 1 0 1 0 7.05 5.05a7 7 0 0 0 0 9.9 1 1 0 0 0 1.414-1.414 5 5 0 0 1 0-7.071ZM16.95 5.05a1 1 0 0 0-1.414 1.415 5 5 0 0 1 0 7.07 1 1 0 0 0 1.414 1.415 7 7 0 0 0 0-9.9Z" fill="currentColor"/><path d="M19.778 2.222a1 1 0 1 0-1.414 1.414 9 9 0 0 1 0 12.728 1 1 0 1 0 1.414 1.414c4.296-4.296 4.296-11.26 0-15.556Z" fill="currentColor"/><path fill-rule="evenodd" clip-rule="evenodd" d="M13 12.83a3.001 3.001 0 1 0-2 0V21a1 1 0 1 0 2 0v-8.17Z" fill="currentColor"/></svg>