<svg fill="none" xmlns="http://www.w3.org/2000/svg" viewBox="0 0 24 24"><path d="M5 2a1 1 0 0 1 1 1v4a1 1 0 0 1-2 0V3a1 1 0 0 1 1-1Z" fill="currentColor"/><path fill-rule="evenodd" clip-rule="evenodd" d="M6 15.83a3.001 3.001 0 1 0-2 0V21a1 1 0 1 0 2 0v-5.17Z" fill="currentColor"/><path d="M13 15a1 1 0 1 0-2 0v6a1 1 0 1 0 2 0v-6Z" fill="currentColor"/><path fill-rule="evenodd" clip-rule="evenodd" d="M12 2a1 1 0 0 1 1 1v3.17a3.001 3.001 0 1 1-2 0V3a1 1 0 0 1 1-1Zm10 13a3.001 3.001 0 0 1-2 2.83V21a1 1 0 1 1-2 0v-3.17A3.001 3.001 0 1 1 22 15Z" fill="currentColor"/><path d="M19 2a1 1 0 0 1 1 1v6a1 1 0 1 1-2 0V3a1 1 0 0 1 1-1Z" fill="currentColor"/></svg>