<svg fill="none" xmlns="http://www.w3.org/2000/svg" viewBox="0 0 24 24"><path opacity=".4" d="M15 2v1.4c0 .56 0 .84-.109 1.054a1 1 0 0 1-.437.437C14.24 5 13.96 5 13.4 5h-2.8c-.56 0-.84 0-1.054-.109a1 1 0 0 1-.437-.437C9 4.24 9 3.96 9 3.4V2" stroke="currentColor" stroke-width="2" stroke-linecap="round" stroke-linejoin="round"/><path d="M4 5.2c0-1.12 0-1.68.218-2.108a2 2 0 0 1 .874-.874C5.52 2 6.08 2 7.2 2h9.6c1.12 0 1.68 0 2.108.218a2 2 0 0 1 .874.874C20 3.52 20 4.08 20 5.2v13.6c0 1.12 0 1.68-.218 2.108a2 2 0 0 1-.874.874C18.48 22 17.92 22 16.8 22H7.2c-1.12 0-1.68 0-2.108-.218a2 2 0 0 1-.874-.874C4 20.48 4 19.92 4 18.8V5.2Z" stroke="currentColor" stroke-width="2" stroke-linecap="round" stroke-linejoin="round"/></svg>