<svg fill="none" xmlns="http://www.w3.org/2000/svg" viewBox="0 0 24 24"><path opacity=".4" d="M12 17.5h.01m.49 0a.5.5 0 1 1-1 0 .5.5 0 0 1 1 0Z" stroke="currentColor" stroke-width="2" stroke-linecap="round" stroke-linejoin="round"/><path d="M4 5.2c0-1.12 0-1.68.218-2.108a2 2 0 0 1 .874-.874C5.52 2 6.08 2 7.2 2h9.6c1.12 0 1.68 0 2.108.218a2 2 0 0 1 .874.874C20 3.52 20 4.08 20 5.2v13.6c0 1.12 0 1.68-.218 2.108a2 2 0 0 1-.874.874C18.48 22 17.92 22 16.8 22H7.2c-1.12 0-1.68 0-2.108-.218a2 2 0 0 1-.874-.874C4 20.48 4 19.92 4 18.8V5.2Z" stroke="currentColor" stroke-width="2" stroke-linecap="round" stroke-linejoin="round"/></svg>