<svg fill="none" xmlns="http://www.w3.org/2000/svg" viewBox="0 0 24 24"><path opacity=".4" d="m17 21-5-4-5 4" stroke="currentColor" stroke-width="2" stroke-linecap="round" stroke-linejoin="round"/><path d="M2 7.8c0-1.68 0-2.52.327-3.162a3 3 0 0 1 1.311-1.311C4.28 3 5.12 3 6.8 3h10.4c1.68 0 2.52 0 3.162.327a3 3 0 0 1 1.311 1.311C22 5.28 22 6.12 22 7.8v4.4c0 1.68 0 2.52-.327 3.162a3 3 0 0 1-1.311 1.311C19.72 17 18.88 17 17.2 17H6.8c-1.68 0-2.52 0-3.162-.327a3 3 0 0 1-1.311-1.311C2 14.72 2 13.88 2 12.2V7.8Z" stroke="currentColor" stroke-width="2" stroke-linecap="round" stroke-linejoin="round"/></svg>