<svg fill="none" xmlns="http://www.w3.org/2000/svg" viewBox="0 0 24 24"><path opacity=".4" d="M18 9V3.6c0-.56 0-.84-.109-1.054a1 1 0 0 0-.437-.437C17.24 2 16.96 2 16.4 2H7.6c-.56 0-.84 0-1.054.109a1 1 0 0 0-.437.437C6 2.76 6 3.04 6 3.6V9m4-3V5m4 1V5" stroke="currentColor" stroke-width="2" stroke-linecap="round" stroke-linejoin="round"/><path d="M4 12.2c0-1.12 0-1.68.218-2.108a2 2 0 0 1 .874-.874C5.52 9 6.08 9 7.2 9h9.6c1.12 0 1.68 0 2.108.218a2 2 0 0 1 .874.874C20 10.52 20 11.08 20 12.2v5c0 1.68 0 2.52-.327 3.162a3 3 0 0 1-1.311 1.311C17.72 22 16.88 22 15.2 22H8.8c-1.68 0-2.52 0-3.162-.327a3 3 0 0 1-1.311-1.311C4 19.72 4 18.88 4 17.2v-5Z" stroke="currentColor" stroke-width="2" stroke-linecap="round" stroke-linejoin="round"/></svg>