<svg fill="none" xmlns="http://www.w3.org/2000/svg" viewBox="0 0 24 24"><path opacity=".4" d="M15 12h7" stroke="currentColor" stroke-width="2" stroke-linecap="round" stroke-linejoin="round"/><path d="M2 9.6c0-.56 0-.84.109-1.054a1 1 0 0 1 .437-.437c.214-.11.494-.11 1.054-.11h1.737c.245 0 .367 0 .482-.027a1 1 0 0 0 .29-.12c.1-.061.187-.148.36-.32l3.165-3.166c.429-.429.643-.643.827-.657a.5.5 0 0 1 .42.173c.119.14.119.443.119 1.05v14.137c0 .605 0 .908-.12 1.049a.5.5 0 0 1-.42.173c-.183-.014-.397-.228-.826-.657L6.47 16.47c-.173-.173-.26-.26-.36-.322a1 1 0 0 0-.29-.12C5.704 16 5.582 16 5.337 16H3.6c-.56 0-.84 0-1.054-.11a1 1 0 0 1-.437-.436C2 15.24 2 14.96 2 14.4V9.6Z" stroke="currentColor" stroke-width="2" stroke-linecap="round" stroke-linejoin="round"/></svg>