<svg fill="none" xmlns="http://www.w3.org/2000/svg" viewBox="0 0 24 24"><path opacity=".4" d="M11.886 17.899c.043-.149.064-.223.096-.292a.987.987 0 0 1 .102-.175c.045-.061.1-.116.21-.225l6.456-6.457a1.768 1.768 0 1 1 2.5 2.5l-6.457 6.457c-.11.109-.164.164-.225.209a.992.992 0 0 1-.175.102c-.069.032-.143.053-.292.096L11 21l.886-3.101Z" stroke="currentColor" stroke-width="2" stroke-linecap="round" stroke-linejoin="round"/><path d="M9 15.5H7.5c-1.396 0-2.093 0-2.661.172a4 4 0 0 0-2.667 2.667C2 18.907 2 19.604 2 21M14.5 7.5a4.5 4.5 0 1 1-9 0 4.5 4.5 0 0 1 9 0Z" stroke="currentColor" stroke-width="2" stroke-linecap="round" stroke-linejoin="round"/></svg>