<svg fill="none" xmlns="http://www.w3.org/2000/svg" viewBox="0 0 24 24"><path opacity=".4" d="M15.5 3.29A4.001 4.001 0 0 1 18 7m-6 14.5 2.025-.405a2.11 2.11 0 0 0 .347-.085c.073-.029.143-.066.207-.111.072-.05.136-.114.263-.242L21.5 14a1.414 1.414 0 0 0-2-2l-6.658 6.657a2.096 2.096 0 0 0-.241.264 1.002 1.002 0 0 0-.11.207c-.033.082-.05.17-.086.347L12 21.5Z" stroke="currentColor" stroke-width="2" stroke-linecap="round" stroke-linejoin="round"/><path d="M11 15H8c-1.864 0-2.796 0-3.53.305a4 4 0 0 0-2.166 2.164C2 18.204 2 19.136 2 21M13.5 7a4 4 0 1 1-8 0 4 4 0 0 1 8 0Z" stroke="currentColor" stroke-width="2" stroke-linecap="round" stroke-linejoin="round"/></svg>