<svg fill="none" xmlns="http://www.w3.org/2000/svg" viewBox="0 0 24 24"><path opacity=".4" d="M18 15.837c1.456.731 2.704 1.905 3.615 3.373.18.29.27.436.302.637.063.409-.216.912-.597 1.073-.188.08-.398.08-.82.08M16 11.532a4.5 4.5 0 0 0 0-8.064" stroke="currentColor" stroke-width="2" stroke-linecap="round" stroke-linejoin="round"/><path d="M9.5 12a4.5 4.5 0 1 0 0-9 4.5 4.5 0 0 0 0 9Zm0 3c-2.83 0-5.346 1.545-6.94 3.938-.35.525-.525.787-.505 1.122.016.26.187.58.395.738.268.202.636.202 1.372.202h11.356c.736 0 1.104 0 1.371-.202a1.11 1.11 0 0 0 .396-.738c.02-.335-.155-.597-.504-1.122C14.846 16.545 12.33 15 9.5 15Z" stroke="currentColor" stroke-width="2" stroke-linecap="round" stroke-linejoin="round"/></svg>