<svg fill="none" xmlns="http://www.w3.org/2000/svg" viewBox="0 0 24 24"><path fill-rule="evenodd" clip-rule="evenodd" d="M18.043 10.043a2.768 2.768 0 1 1 3.914 3.914c-2.16 2.16-4.323 4.316-6.48 6.48a2.759 2.759 0 0 1-.317.285c-.11.08-.226.149-.35.205a2.71 2.71 0 0 1-.403.14c-1.045.296-2.088.596-3.132.895a1 1 0 0 1-1.236-1.237c.298-1.044.598-2.087.894-3.132.033-.116.075-.262.14-.404a1.97 1.97 0 0 1 .205-.349c.092-.125.2-.232.285-.318 2.164-2.156 4.32-4.32 6.48-6.48ZM6.61 14.51c.145.012.353.042.571.154a1.5 1.5 0 0 1 .656.655c.11.218.141.426.153.571.01.125.01.268.01.387v3.946c0 .12 0 .262-.01.387a1.508 1.508 0 0 1-.153.571 1.5 1.5 0 0 1-.656.655 1.508 1.508 0 0 1-.571.154c-.125.01-.268.01-.387.01-2.877-.001-.755-.015-3.632 0-.072 0-.215.001-.351-.023a1.5 1.5 0 0 1-1.217-1.216C.999 20.623 1 20.48 1 20.41c.003-.591-.027-1.194.076-1.778a5 5 0 0 1 4.056-4.056 5.923 5.923 0 0 1 1.478-.066ZM4.5 7.5a5.5 5.5 0 1 1 11 0 5.5 5.5 0 0 1-11 0Z" fill="currentColor"/></svg>