<svg fill="none" xmlns="http://www.w3.org/2000/svg" viewBox="0 0 24 24"><path fill-rule="evenodd" clip-rule="evenodd" d="M12.457 1.245a2 2 0 0 0-.914 0c-.348.082-.652.281-.893.44l-8.523 5.54c-.206.132-.465.299-.662.535a2 2 0 0 0-.377.695C.998 8.748 1 9.056 1 9.3v5.397c-.001.245-.002.553.088.847a2 2 0 0 0 .377.694c.197.236.456.403.662.536l8.523 5.54c.241.158.545.357.893.44.3.07.613.07.914 0 .348-.083.652-.282.893-.44l8.523-5.54c.206-.133.465-.3.662-.535a2 2 0 0 0 .377-.695c.09-.294.089-.602.088-.847V9.301c.001-.245.002-.553-.088-.846a2 2 0 0 0-.377-.695c-.197-.236-.456-.403-.662-.536l-8.523-5.54c-.241-.158-.545-.357-.893-.439ZM3 10.342l.004 4.613L11 20.157v-4.624l-8-5.19Zm10 9.815 7.996-5.207.004-4.607-8 5.19v4.624Z" fill="currentColor"/></svg>