<svg fill="none" xmlns="http://www.w3.org/2000/svg" viewBox="0 0 24 24"><path opacity=".4" d="M12 4v11.2c0 1.68 0 2.52.327 3.162a3 3 0 0 0 1.311 1.311C14.28 20 15.12 20 16.8 20h.2M7 4h10m-5 8h5" stroke="currentColor" stroke-width="2" stroke-linecap="round" stroke-linejoin="round"/><path d="M19 14a2 2 0 1 0 0-4 2 2 0 0 0 0 4ZM5 6a2 2 0 1 0 0-4 2 2 0 0 0 0 4Zm14 0a2 2 0 1 0 0-4 2 2 0 0 0 0 4Zm0 16a2 2 0 1 0 0-4 2 2 0 0 0 0 4Z" stroke="currentColor" stroke-width="2" stroke-linecap="round" stroke-linejoin="round"/></svg>