<svg fill="none" xmlns="http://www.w3.org/2000/svg" viewBox="0 0 24 24"><path fill-rule="evenodd" clip-rule="evenodd" d="M20 14a4 4 0 1 0 1.705 7.62l.588.587a1 1 0 0 0 1.414-1.414l-.458-.459A4 4 0 0 0 20 14Zm-2 4a2 2 0 1 1 4 0 2 2 0 0 1-4 0Z" fill="currentColor"/><path d="M11.597 1.185a2 2 0 0 1 .806 0c.307.063.582.217.8.34l.06.033 6.426 3.571c.409.227.613.34.68.49a.5.5 0 0 1 .002.412c-.067.15-.271.265-.679.494l-2.329 1.31L8.4 2.857l2.337-1.298.06-.034c.218-.122.493-.276.8-.339ZM6.342 4l8.975 4.987-2.925 1.645c-.143.08-.214.12-.29.136a.502.502 0 0 1-.204 0c-.076-.016-.147-.056-.29-.136l-7.3-4.107c-.408-.229-.611-.343-.679-.494a.5.5 0 0 1 .001-.411c.068-.15.272-.264.68-.49L6.343 4Zm15.654 4.89c0-.448 0-.672-.095-.803a.5.5 0 0 0-.35-.204c-.16-.018-.356.092-.747.312l-7.396 4.16c-.149.084-.223.125-.277.184a.5.5 0 0 0-.106.182c-.025.076-.025.161-.025.331v8.176c0 .447 0 .67.094.801a.5.5 0 0 0 .348.205c.16.019.355-.09.745-.306l.116-.065c.268-.148.402-.223.468-.319a.457.457 0 0 0 .09-.287c-.001-.116-.08-.273-.235-.586a6 6 0 0 1 6.276-8.604c.435.066.652.099.775.051a.452.452 0 0 0 .256-.22c.065-.115.065-.306.065-.689l-.002-2.319ZM9.814 21.928c.39.216.584.325.744.306a.5.5 0 0 0 .348-.205c.094-.13.094-.354.094-.801v-8.176c0-.17 0-.255-.025-.331a.5.5 0 0 0-.106-.181c-.054-.06-.128-.101-.277-.185l-7.396-4.16c-.391-.22-.587-.33-.748-.312a.5.5 0 0 0-.349.204c-.094.13-.095.355-.095.803C2.003 10.756 2 14.096 2 16.06v.072c-.001.264-.002.595.101.908a2 2 0 0 0 .428.728c.223.242.514.402.745.53l.063.034 6.477 3.597Z" fill="currentColor"/></svg>