<svg fill="none" xmlns="http://www.w3.org/2000/svg" viewBox="0 0 24 24"><path d="M21 15a1 1 0 1 0-2 0v2h-2a1 1 0 1 0 0 2h2v2a1 1 0 1 0 2 0v-2h2a1 1 0 1 0 0-2h-2v-2ZM11.597 1.185a2 2 0 0 1 .806 0c.307.063.582.217.8.34l.06.033 6.426 3.571c.409.227.613.34.68.49a.5.5 0 0 1 .002.412c-.067.15-.271.265-.679.494l-2.329 1.31L8.4 2.857l2.337-1.298.06-.034c.218-.122.493-.276.8-.339ZM6.342 4l8.975 4.987-2.925 1.645c-.143.08-.214.12-.29.136a.502.502 0 0 1-.204 0c-.076-.016-.147-.056-.29-.136l-7.3-4.107c-.408-.229-.611-.343-.679-.494a.5.5 0 0 1 .001-.411c.068-.15.272-.264.68-.49L6.343 4Z" fill="currentColor"/><path d="M21.996 8.89c0-.448 0-.672-.095-.803a.5.5 0 0 0-.35-.204c-.16-.018-.356.092-.747.312l-7.396 4.16c-.149.084-.223.125-.277.184a.5.5 0 0 0-.106.182c-.025.076-.025.161-.025.331v8.176c0 .447 0 .67.094.801a.5.5 0 0 0 .348.205c.16.019.355-.09.745-.306l.285-.158c.5-.278.749-.416.818-.528.083-.135.09-.171.07-.328-.018-.13-.264-.457-.757-1.11a3 3 0 0 1 5.794-7.779c.777.104 1.165.155 1.286.107.145-.058.175-.084.251-.22.064-.115.064-.39.063-.94l-.001-2.082ZM9.814 21.928c.39.216.584.325.744.306a.5.5 0 0 0 .348-.205c.094-.13.094-.354.094-.801v-8.176c0-.17 0-.255-.025-.331a.5.5 0 0 0-.106-.181c-.054-.06-.128-.101-.277-.185l-7.396-4.16c-.391-.22-.587-.33-.748-.312a.5.5 0 0 0-.349.204c-.094.13-.095.355-.095.803C2.003 10.756 2 14.096 2 16.06v.072c-.001.264-.002.595.101.908a2 2 0 0 0 .428.728c.223.242.514.402.745.53l.063.034 6.477 3.597Z" fill="currentColor"/></svg>