<svg fill="none" xmlns="http://www.w3.org/2000/svg" viewBox="0 0 24 24"><path opacity=".4" d="m22 17.5-.692-10.03c-.108-1.575-.163-2.362-.504-2.96a3 3 0 0 0-1.298-1.21C18.887 3 18.098 3 16.52 3H7.48c-1.578 0-2.367 0-2.986.3a3 3 0 0 0-1.298 1.21c-.341.598-.396 1.385-.504 2.96L2 17.5" stroke="currentColor" stroke-width="2" stroke-linecap="round" stroke-linejoin="round"/><path d="M6 17.5h.01m5.99 0h6M5.5 21h13a3.5 3.5 0 1 0 0-7h-13a3.5 3.5 0 1 0 0 7Z" stroke="currentColor" stroke-width="2" stroke-linecap="round" stroke-linejoin="round"/></svg>