<svg fill="none" xmlns="http://www.w3.org/2000/svg" viewBox="0 0 24 24"><path opacity=".4" d="M10 20H3m18 0h-7" stroke="currentColor" stroke-width="2" stroke-linecap="round" stroke-linejoin="round"/><path d="M19 9a7 7 0 0 1-7 7m7-7a7 7 0 0 0-7-7m7 7H5m7 7a7 7 0 0 1-7-7m7 7a10.71 10.71 0 0 0 2.8-7A10.711 10.711 0 0 0 12 2m0 14a10.709 10.709 0 0 1-2.8-7A10.709 10.709 0 0 1 12 2m0 14v2M5 9a7 7 0 0 1 7-7m0 16a2 2 0 1 0 0 4 2 2 0 0 0 0-4Z" stroke="currentColor" stroke-width="2" stroke-linecap="round" stroke-linejoin="round"/></svg>