<svg fill="none" xmlns="http://www.w3.org/2000/svg" viewBox="0 0 24 24"><path d="M6.759 2H17.24c.805 0 1.47 0 2.01.044.563.046 1.08.145 1.565.392a4 4 0 0 1 1.748 1.748c.247.485.346 1.002.392 1.564.018.217.029.434.036.652.017.542.025.813-.081 1.034-.092.19-.251.355-.438.453C22.255 8 21.97 8 21.4 8H2.6c-.57 0-.855 0-1.073-.113a1.02 1.02 0 0 1-.438-.453c-.106-.22-.098-.492-.08-1.034.006-.218.017-.435.035-.652.046-.562.145-1.079.392-1.564a4 4 0 0 1 1.748-1.748c.485-.247 1.002-.346 1.564-.392C5.29 2 5.954 2 6.758 2Z" fill="currentColor"/><path fill-rule="evenodd" clip-rule="evenodd" d="M23 11.6v4.641c0 .805 0 1.47-.044 2.01-.046.563-.145 1.08-.392 1.565a4 4 0 0 1-1.748 1.748c-.485.247-1.002.346-1.564.392-.541.044-1.206.044-2.01.044H6.758c-.805 0-1.47 0-2.01-.044-.563-.046-1.08-.145-1.565-.392a4 4 0 0 1-1.748-1.748c-.247-.485-.346-1.002-.392-1.564C1 17.71 1 17.046 1 16.242V11.6c0-.56 0-.84.109-1.054a1 1 0 0 1 .437-.437C1.76 10 2.04 10 2.6 10h18.8c.56 0 .84 0 1.054.109a1 1 0 0 1 .437.437C23 10.76 23 11.04 23 11.6Zm-16.293.693a1 1 0 0 0-1.414 1.414L7.086 15.5l-1.793 1.793a1 1 0 1 0 1.414 1.414l2.5-2.5a1 1 0 0 0 0-1.414l-2.5-2.5ZM11 17a1 1 0 1 0 0 2h4a1 1 0 1 0 0-2h-4Z" fill="currentColor"/></svg>