<svg fill="none" xmlns="http://www.w3.org/2000/svg" viewBox="0 0 24 24"><path fill-rule="evenodd" clip-rule="evenodd" d="M18.529 2c1.496.014 2.627 1.13 3.326 2.43C22.582 5.778 23 7.573 23 9.5c0 1.927-.418 3.722-1.145 5.07-.7 1.303-1.835 2.42-3.336 2.43-2.4.044-5.069-.902-7.426-1.33l.274 3.564c.1 1.297-.267 2.618-1.808 2.748-1.069.09-2.199.087-3.264.003-1.273-.101-1.813-1.194-1.896-2.37l-.376-5.253a3.956 3.956 0 0 1-.787-.275 4 4 0 0 1-2.084-2.498c-.334-1.177-.336-2.995 0-4.178a4 4 0 0 1 2.084-2.497c.503-.247 1.098-.355 1.894-.5C9.531 3.615 17 2 18.529 2Zm.044 12.997-.472-.086c-.365-.157-.792-.54-1.195-1.289-.54-1.004-.906-2.46-.906-4.122s.365-3.118.906-4.122c.333-.62.684-.989 1.001-1.187.124-.077.267-.115.41-.141.17-.031.345-.048.507.01.381.135.84.518 1.27 1.318.541 1.004.906 2.46.906 4.122 0 1.663-.365 3.118-.905 4.122-.531.986-1.104 1.338-1.522 1.375Z" fill="currentColor"/></svg>