<svg fill="none" xmlns="http://www.w3.org/2000/svg" viewBox="0 0 24 24"><path fill-rule="evenodd" clip-rule="evenodd" d="M12.191 4.858a3.5 3.5 0 1 0-6.338 1.698 7.012 7.012 0 0 0-1.29 1.428c-.983 1.452-1.323 3.19-.884 4.826.545 2.036.429 3.612.106 4.771l-.006.02a71.31 71.31 0 0 0-.473 1.74 6.946 6.946 0 0 0-.12.558c-.012.08-.024.174-.027.272a1.24 1.24 0 0 0 .072.468c.043.113.131.337.329.537s.42.29.534.334c.184.071.35.078.433.079.097 0 .189-.008.264-.018a5.59 5.59 0 0 0 .502-.096 50.33 50.33 0 0 0 1.47-.38l1.247-.335a4.002 4.002 0 0 0 7.484-2.005l3.178-.852a47.385 47.385 0 0 0 1.464-.405c.175-.054.342-.11.483-.168.07-.029.154-.067.238-.117.07-.041.212-.13.335-.285.076-.094.224-.284.296-.556a1.48 1.48 0 0 0 .016-.63 1.225 1.225 0 0 0-.172-.44 2.167 2.167 0 0 0-.16-.222 6.977 6.977 0 0 0-.382-.423 73.47 73.47 0 0 0-1.28-1.272l-.014-.014c-.86-.842-1.749-2.148-2.294-4.184-.439-1.637-1.602-2.972-3.178-3.738a7.012 7.012 0 0 0-1.833-.591Zm-3.873-1.78a1.5 1.5 0 0 0-.772 2.4 7.892 7.892 0 0 1 2.64-.707 1.5 1.5 0 0 0-1.869-1.693Zm5.107 16.231-3.347.897a2 2 0 0 0 3.347-.897Z" fill="currentColor"/></svg>