<svg fill="none" xmlns="http://www.w3.org/2000/svg" viewBox="0 0 24 24"><path fill-rule="evenodd" clip-rule="evenodd" d="M7.108 6.556a3.5 3.5 0 1 1 6.338-1.698 7.013 7.013 0 0 1 1.832.591c1.577.766 2.74 2.101 3.178 3.738.546 2.036 1.435 3.342 2.294 4.184l.015.014c.552.542.984.965 1.28 1.272.148.153.28.297.382.423.051.063.109.138.16.222.038.062.135.223.171.44.02.12.056.358-.015.63a1.48 1.48 0 0 1-.296.556 1.224 1.224 0 0 1-.335.285c-.084.05-.168.088-.238.117a5.477 5.477 0 0 1-.483.168c-.35.107-.843.239-1.464.405l-3.178.852a4.002 4.002 0 0 1-7.484 2.005l-1.247.334c-.62.167-1.114.299-1.47.381-.179.041-.35.077-.502.096-.075.01-.167.019-.264.018-.083 0-.25-.008-.434-.079a1.48 1.48 0 0 1-.534-.334 1.48 1.48 0 0 1-.328-.537 1.224 1.224 0 0 1-.072-.468c.003-.098.015-.192.027-.271a6.96 6.96 0 0 1 .12-.558c.102-.414.265-.996.473-1.742l.005-.019c.324-1.159.44-2.735-.105-4.77-.439-1.637-.1-3.375.883-4.827a7.012 7.012 0 0 1 1.291-1.428Zm1.404-1.641a1.5 1.5 0 1 1 2.93-.144 7.89 7.89 0 0 0-2.641.708 1.493 1.493 0 0 1-.289-.564Zm2.822 15.29a2 2 0 0 0 3.346-.896l-3.346.897Z" fill="currentColor"/><path d="M3.823 6.987a1 1 0 0 1-.014 1.415 3.007 3.007 0 0 0-.789 2.943 1 1 0 0 1-1.926.537 5.007 5.007 0 0 1 1.315-4.909 1 1 0 0 1 1.414.014Zm12.654-3.39a1 1 0 0 1 1.217-.72 5.007 5.007 0 0 1 3.593 3.594 1 1 0 1 1-1.936.498 3.007 3.007 0 0 0-2.155-2.154 1 1 0 0 1-.72-1.218Z" fill="currentColor"/></svg>