<svg fill="none" xmlns="http://www.w3.org/2000/svg" viewBox="0 0 24 24"><path opacity=".4" d="M14.39 18.015a3 3 0 1 1-5.795 1.553" stroke="currentColor" stroke-width="2" stroke-linecap="round" stroke-linejoin="round"/><path d="M10.892 5.74a2.5 2.5 0 1 0-3.47.93m8.814 2.775c-.357-1.332-1.31-2.446-2.65-3.097-1.338-.65-2.954-.784-4.492-.373-1.537.412-2.869 1.336-3.703 2.57-.835 1.233-1.103 2.674-.746 4.006.59 2.204.476 3.963.103 5.299-.425 1.523-.638 2.284-.58 2.437.065.175.113.223.287.29.152.06.792-.112 2.072-.455l11.865-3.18c1.28-.342 1.919-.514 2.021-.64.117-.146.135-.212.104-.396-.027-.161-.591-.714-1.721-1.82-.991-.971-1.97-2.437-2.56-4.64Z" stroke="currentColor" stroke-width="2" stroke-linecap="round" stroke-linejoin="round"/></svg>