<svg fill="none" xmlns="http://www.w3.org/2000/svg" viewBox="0 0 24 24"><path opacity=".4" d="M15.646 18.015a3 3 0 1 1-5.796 1.553m-7.793-7.955a4.007 4.007 0 0 1 1.052-3.925m17.21-.968a4.007 4.007 0 0 0-2.874-2.874" stroke="currentColor" stroke-width="2" stroke-linecap="round" stroke-linejoin="round"/><path d="M12.146 5.74a2.5 2.5 0 1 0-3.47.93m8.815 2.775C17.134 8.113 16.18 7 14.84 6.348c-1.339-.65-2.955-.784-4.492-.373-1.537.412-2.87 1.336-3.704 2.57-.834 1.233-1.102 2.674-.745 4.006.59 2.204.475 3.963.103 5.299-.426 1.522-.638 2.284-.58 2.437.065.175.113.223.287.29.152.06.792-.112 2.071-.455l11.865-3.18c1.28-.342 1.92-.514 2.022-.64.117-.146.134-.212.104-.396-.027-.161-.592-.714-1.721-1.82-.991-.971-1.97-2.437-2.56-4.64Z" stroke="currentColor" stroke-width="2" stroke-linecap="round" stroke-linejoin="round"/></svg>