<svg fill="none" xmlns="http://www.w3.org/2000/svg" viewBox="0 0 24 24"><path opacity=".4" d="M7 11v11" stroke="currentColor" stroke-width="2" stroke-linecap="round" stroke-linejoin="round"/><path d="M20.391 19.456A3 3 0 0 1 17.426 22H4a2 2 0 0 1-2-2v-7a2 2 0 0 1 2-2h2.35a1 1 0 0 0 .914-.594l3.52-7.918a.822.822 0 0 1 .75-.488A2.466 2.466 0 0 1 14 4.466V8a1 1 0 0 0 1 1h3.503a3 3 0 0 1 2.965 3.456l-1.077 7Z" stroke="currentColor" stroke-width="2" stroke-linecap="round" stroke-linejoin="round"/></svg>