<svg fill="none" xmlns="http://www.w3.org/2000/svg" viewBox="0 0 24 24"><path fill-rule="evenodd" clip-rule="evenodd" d="M16.241 2H7.76c-.805 0-1.47 0-2.01.044-.563.046-1.08.145-1.565.392a4 4 0 0 0-1.748 1.748c-.247.485-.346 1.002-.392 1.564C2 6.29 2 6.954 2 7.758v12.613c0 .235 0 .475.018.672.017.188.062.542.31.852a1.5 1.5 0 0 0 1.174.565c.397 0 .702-.187.86-.291.164-.109.351-.259.535-.406l2.413-1.93c.519-.415.672-.532.832-.614.16-.082.332-.142.508-.178.176-.036.37-.041 1.034-.041h6.557c.805 0 1.47 0 2.01-.044.563-.046 1.08-.145 1.565-.392a4 4 0 0 0 1.748-1.748c.247-.485.346-1.002.392-1.564.044-.541.044-1.206.044-2.01V7.758c0-.805 0-1.47-.044-2.01-.046-.563-.145-1.08-.392-1.565a4 4 0 0 0-1.748-1.748c-.485-.247-1.002-.346-1.564-.392C17.71 2 17.046 2 16.242 2Zm-2.896 11.028.87-.62a.583.583 0 0 1 .763.074l1.86 1.955a.59.59 0 0 1-.085.886 3.637 3.637 0 0 1-5.087-.867L8.674 10.22a3.677 3.677 0 0 1 .863-5.112.584.584 0 0 1 .86.212l1.224 2.41a.59.59 0 0 1-.182.747l-.87.62 2.776 3.93Z" fill="currentColor"/></svg>