<svg fill="none" xmlns="http://www.w3.org/2000/svg" viewBox="0 0 24 24"><path fill-rule="evenodd" clip-rule="evenodd" d="M15.838 1H8.162c-.527 0-.981 0-1.356.03-.395.033-.789.104-1.167.297a3 3 0 0 0-1.311 1.311c-.193.378-.264.772-.296 1.167C4 4.18 4 4.635 4 5.161v13.677c0 .528 0 .982.03 1.357.033.395.104.789.297 1.167a3 3 0 0 0 1.311 1.311c.378.193.772.264 1.167.296.375.031.83.031 1.356.031h7.678c.527 0 .981 0 1.356-.03.395-.033.789-.104 1.167-.297a3 3 0 0 0 1.311-1.311c.193-.378.264-.772.296-1.167.031-.375.031-.83.031-1.356V5.16c0-.527 0-.981-.03-1.356-.033-.395-.104-.789-.297-1.167a3 3 0 0 0-1.311-1.311c-.378-.193-.772-.264-1.167-.296C16.82 1 16.365 1 15.838 1ZM12 16a1.5 1.5 0 1 0 0 3 1.5 1.5 0 0 0 0-3ZM6.546 3.109c.05-.025.15-.063.422-.085C7.25 3 7.623 3 8.2 3h7.6c.577 0 .949 0 1.232.024.272.022.372.06.422.085a1 1 0 0 1 .437.437c.025.05.063.15.085.422C18 4.25 18 4.623 18 5.2V6H6v-.8c0-.577 0-.949.024-1.232.022-.272.06-.373.085-.422a1 1 0 0 1 .437-.437ZM18 8H6v3h12V8Z" fill="currentColor"/></svg>