<svg fill="none" xmlns="http://www.w3.org/2000/svg" viewBox="0 0 24 24"><path d="M5.842 10.996a9.902 9.902 0 0 1-.637-.026c-.396-.033-.79-.104-1.167-.297l-.206-.115a3 3 0 0 1-1.105-1.196L2.66 9.22a3.222 3.222 0 0 1-.23-1.025C2.4 7.812 2.4 7.343 2.4 6.8v-.6c0-.543-.001-1.012.03-1.395.028-.346.086-.69.23-1.025l.067-.142a3 3 0 0 1 1.105-1.196l.206-.115c.378-.193.771-.264 1.167-.297.191-.015.404-.022.637-.026L6.6 2h11.6c.543 0 1.012-.001 1.395.03.346.029.69.087 1.025.23l.142.067a3 3 0 0 1 1.195 1.105l.116.206c.192.378.264.771.297 1.167.015.191.022.405.026.637l.004.758v.6c0 .543.001 1.012-.03 1.395-.033.396-.105.789-.297 1.167l-.116.206a3 3 0 0 1-1.195 1.105l-.142.067a3.221 3.221 0 0 1-1.025.23c-.383.031-.852.03-1.395.03H6.6l-.758-.004Zm11.2 11a9.899 9.899 0 0 1-.637-.026c-.396-.033-.789-.104-1.167-.297l-.207-.115a3 3 0 0 1-1.104-1.196l-.067-.142a3.219 3.219 0 0 1-.23-1.025c-.031-.383-.03-.852-.03-1.395v-.6c0-.543-.001-1.012.03-1.395.029-.346.087-.69.23-1.025l.067-.142a3 3 0 0 1 1.104-1.196l.207-.115c.378-.193.771-.264 1.167-.297.192-.015.405-.022.637-.026L17.8 13h.4c.543 0 1.012-.001 1.395.03.346.029.69.087 1.025.23l.142.067a3 3 0 0 1 1.195 1.105l.116.206c.192.378.264.771.297 1.167.015.191.022.405.026.637l.004.758v.6c0 .543.001 1.012-.03 1.395-.033.396-.105.789-.297 1.167l-.116.206a3 3 0 0 1-1.195 1.105l-.142.067a3.221 3.221 0 0 1-1.025.23c-.383.031-.852.03-1.395.03h-.4l-.758-.004Zm-11 0a9.901 9.901 0 0 1-.637-.026c-.396-.033-.789-.104-1.167-.297l-.207-.115a3 3 0 0 1-1.104-1.196l-.067-.142a3.221 3.221 0 0 1-.23-1.025c-.031-.383-.03-.852-.03-1.395v-.6c0-.543-.001-1.012.03-1.395.029-.346.087-.69.23-1.025l.067-.142a3 3 0 0 1 1.104-1.196l.207-.115c.378-.193.771-.264 1.167-.297.192-.015.405-.022.637-.026L6.8 13h.4c.543 0 1.012-.001 1.395.03.346.029.69.087 1.025.23l.142.067a3 3 0 0 1 1.195 1.105l.116.206c.192.378.264.771.297 1.167.015.191.022.405.026.637l.004.758v.6c0 .543.001 1.012-.03 1.395-.033.396-.104.789-.297 1.167l-.116.206a3 3 0 0 1-1.195 1.105l-.142.067a3.221 3.221 0 0 1-1.025.23C8.212 22 7.743 22 7.2 22h-.4l-.758-.004Z" fill="currentColor"/></svg>