<svg fill="none" xmlns="http://www.w3.org/2000/svg" viewBox="0 0 24 24"><path opacity=".4" d="m21.5 19-6.643-6m-5.714 0L2.5 19M13.744 2.633l7.528 4.894c.266.173.399.259.495.374a1 1 0 0 1 .189.348c.044.143.044.302.044.62v7.33c0 1.681 0 2.521-.327 3.163a3 3 0 0 1-1.311 1.31C19.72 21 18.88 21 17.2 21H6.8c-1.68 0-2.52 0-3.162-.327a3 3 0 0 1-1.311-1.311C2 18.72 2 17.88 2 16.2V8.868c0-.317 0-.476.044-.62a1 1 0 0 1 .189-.347c.096-.115.229-.201.495-.374l7.528-4.894c.631-.41.947-.615 1.287-.695a2 2 0 0 1 .914 0c.34.08.656.285 1.287.695Z" stroke="currentColor" stroke-width="2" stroke-linecap="round" stroke-linejoin="round"/><path d="M10.256 13.366 3.032 8.671c-.344-.224-.516-.336-.575-.477a.5.5 0 0 1 0-.388c.06-.142.231-.253.575-.477l7.224-4.696c.631-.41.947-.615 1.287-.695a2 2 0 0 1 .914 0c.34.08.656.285 1.287.695l7.224 4.696c.344.224.516.335.576.477a.5.5 0 0 1 0 .388c-.06.141-.232.253-.576.477l-7.224 4.695c-.631.41-.947.616-1.287.696-.3.07-.613.07-.914 0-.34-.08-.656-.285-1.287-.696Z" stroke="currentColor" stroke-width="2" stroke-linecap="round" stroke-linejoin="round"/></svg>