<svg fill="none" xmlns="http://www.w3.org/2000/svg" viewBox="0 0 24 24"><path d="M15.6 3c1.137 0 1.929 0 2.546.051.605.05.953.142 1.216.276a3 3 0 0 1 1.311 1.311c.134.263.226.611.276 1.216.05.617.051 1.41.051 2.546V16a1 1 0 1 0 2 0V8.357c0-1.084 0-1.958-.058-2.666-.06-.728-.185-1.369-.487-1.961a5 5 0 0 0-2.185-2.185c-.592-.302-1.232-.428-1.961-.487C17.6 1 16.727 1 15.643 1H8a1 1 0 0 0 0 2h7.6Z" fill="currentColor"/><path fill-rule="evenodd" clip-rule="evenodd" d="M14.838 5H6.162c-.527 0-.981 0-1.356.03-.395.033-.789.104-1.167.297a3 3 0 0 0-1.311 1.311c-.193.378-.264.772-.296 1.167C2 8.18 2 8.635 2 9.161v8.678c0 .527 0 .982.03 1.356.033.395.104.789.297 1.167a3 3 0 0 0 1.311 1.311c.378.193.772.264 1.167.296.375.031.83.031 1.356.031h8.678c.527 0 .981 0 1.356-.03.395-.033.789-.104 1.167-.297a3 3 0 0 0 1.311-1.311c.193-.378.264-.772.296-1.167.031-.375.031-.83.031-1.356V9.16c0-.527 0-.981-.03-1.356-.033-.395-.104-.789-.297-1.167a3 3 0 0 0-1.311-1.311c-.378-.193-.772-.264-1.167-.296A17.9 17.9 0 0 0 14.838 5ZM5 10a1 1 0 0 1 1-1h2a1 1 0 0 1 1 1v2a1 1 0 0 1-1 1H6a1 1 0 0 1-1-1v-2Zm0 5a1 1 0 0 1 1-1h2a1 1 0 0 1 1 1v2a1 1 0 0 1-1 1H6a1 1 0 0 1-1-1v-2Zm6-5a1 1 0 1 0 0 2h4a1 1 0 1 0 0-2h-4Zm0 5a1 1 0 1 0 0 2h4a1 1 0 1 0 0-2h-4Z" fill="currentColor"/></svg>