<svg fill="none" xmlns="http://www.w3.org/2000/svg" viewBox="0 0 24 24"><path fill-rule="evenodd" clip-rule="evenodd" d="M6.759 1H17.24c.805 0 1.47 0 2.01.044.563.046 1.08.145 1.565.392a4 4 0 0 1 1.748 1.748c.247.485.346 1.002.392 1.564C23 5.29 23 5.954 23 6.758v9.483c0 .805 0 1.47-.044 2.01-.046.563-.145 1.08-.392 1.565a4 4 0 0 1-1.748 1.748c-.485.247-1.002.346-1.564.392-.541.044-1.206.044-2.01.044H6.758c-.805 0-1.47 0-2.01-.044-.563-.046-1.08-.145-1.565-.392a4 4 0 0 1-1.748-1.748c-.247-.485-.346-1.002-.392-1.564C1 17.71 1 17.046 1 16.242V6.758c0-.805 0-1.47.044-2.01.046-.563.145-1.08.392-1.565a4 4 0 0 1 1.748-1.748c.485-.247 1.002-.346 1.564-.392C5.29 1 5.954 1 6.758 1ZM4.91 3.038c-.438.035-.663.1-.819.18a2 2 0 0 0-.874.874c-.08.156-.145.38-.18.819C3 5.361 3 5.943 3 6.8v9.4c0 .857 0 1.439.038 1.889.035.438.1.663.18.819a2 2 0 0 0 .874.874c.156.08.38.145.819.18C5.361 20 5.943 20 6.8 20h10.4c.857 0 1.439 0 1.889-.038.438-.035.663-.1.819-.18a2 2 0 0 0 .874-.874c.08-.156.145-.38.18-.819.037-.45.038-1.032.038-1.889V6.8c0-.857 0-1.439-.038-1.889-.035-.438-.1-.663-.18-.819a2 2 0 0 0-.874-.874c-.156-.08-.38-.145-.819-.18C18.639 3 18.057 3 17.2 3H6.8c-.857 0-1.439 0-1.889.038ZM7.568 5h8.864c.252 0 .498 0 .706.017.229.019.499.063.77.201a2 2 0 0 1 .874.874c.138.271.182.541.201.77.017.208.017.454.017.706v7.864c0 .252 0 .498-.017.706a2.022 2.022 0 0 1-.201.77 2 2 0 0 1-.874.874 2.022 2.022 0 0 1-.77.201c-.208.017-.454.017-.706.017H7.568c-.252 0-.498 0-.706-.017a2.022 2.022 0 0 1-.77-.201 2 2 0 0 1-.874-.874 2.022 2.022 0 0 1-.201-.77C5 15.93 5 15.684 5 15.432V7.568c0-.252 0-.498.017-.706a2.03 2.03 0 0 1 .201-.77 2 2 0 0 1 .874-.874 2.03 2.03 0 0 1 .77-.201C7.07 5 7.316 5 7.568 5ZM14 10a1 1 0 1 1-2 0 1 1 0 0 1 2 0Zm1.015 4H8.539a1 1 0 0 1-.914-1.406l.944-2.125a1 1 0 0 1 1.682-.234l1.64 1.967a1 1 0 0 0 1.437.103l.632-.57a1 1 0 0 1 1.473.149l.385.52A1 1 0 0 1 15.015 14Z" fill="currentColor"/></svg>