<svg fill="none" xmlns="http://www.w3.org/2000/svg" viewBox="0 0 24 24"><path d="M16.4 17c.56 0 .84 0 1.054-.109a1 1 0 0 0 .437-.437C18 16.24 18 15.96 18 15.4V7.6c0-.56 0-.84-.109-1.054a1 1 0 0 0-.437-.437C17.24 6 16.96 6 16.4 6H7.6c-.56 0-.84 0-1.054.109a1 1 0 0 0-.437.437C6 6.76 6 7.04 6 7.6v7.8c0 .56 0 .84.109 1.054a1 1 0 0 0 .437.437C6.76 17 7.04 17 7.6 17h8.8Z" stroke="currentColor" stroke-width="2" stroke-linecap="round" stroke-linejoin="round"/><path opacity=".4" d="M17.2 21c1.68 0 2.52 0 3.162-.327a3 3 0 0 0 1.311-1.311C22 18.72 22 17.88 22 16.2V6.8c0-1.68 0-2.52-.327-3.162a3 3 0 0 0-1.311-1.311C19.72 2 18.88 2 17.2 2H6.8c-1.68 0-2.52 0-3.162.327a3 3 0 0 0-1.311 1.311C2 4.28 2 5.12 2 6.8v9.4c0 1.68 0 2.52.327 3.162a3 3 0 0 0 1.311 1.311C4.28 21 5.12 21 6.8 21h10.4Z" stroke="currentColor" stroke-width="2" stroke-linecap="round" stroke-linejoin="round"/><path d="M14 10a1 1 0 1 1-2 0 1 1 0 0 1 2 0Z" fill="currentColor"/><path d="M9.5 14h5.515a1 1 0 0 0 .803-1.595l-.385-.521a1 1 0 0 0-1.473-.148l-.632.57a1 1 0 0 1-1.438-.104l-.677-1.967a1 1 0 0 0-1.682.234l-.945 2.125A1 1 0 0 0 9.5 14Z" fill="currentColor"/></svg>