<svg fill="none" xmlns="http://www.w3.org/2000/svg" viewBox="0 0 24 24"><path d="M15.479 8.444h3.233v.854h-2.226v1.006h2.026v.807h-2.026v1.147h2.3v.853h-3.307V8.444Zm-4.872 0h1.034l1.973 2.947V8.444h.96v4.667h-.893l-2.12-3.18v3.18h-.954V8.444Zm-1.916 0h1.007v4.667H8.691V8.444Zm-3.498 0H6.2v3.814h2v.853H5.193V8.444Z" fill="currentColor"/><path opacity=".4" d="M21.866 11.552c-1.048 5.031-6.95 8.781-8.988 9.786-2.302 1.134-2.652.734-2.136-.525.794-1.938 0-2.146-1.862-2.706-3.167-.952-5.951-2.526-6.735-6.305-.805-3.883 1.657-9.288 9.391-9.774 7.444-.469 11.245 5.131 10.33 9.524Z" stroke="currentColor" stroke-width="2"/></svg>