<svg fill="none" xmlns="http://www.w3.org/2000/svg" viewBox="0 0 24 24"><path d="M6.6 3c-1.12 0-1.68 0-2.108.218a2 2 0 0 0-.874.874C3.4 4.52 3.4 5.08 3.4 6.2v.6c0 1.12 0 1.68.218 2.108a2 2 0 0 0 .874.874C4.92 10 5.48 10 6.6 10h11.6c1.12 0 1.68 0 2.108-.218a2 2 0 0 0 .874-.874c.218-.428.218-.988.218-2.108v-.6c0-1.12 0-1.68-.218-2.108a2 2 0 0 0-.874-.874C19.88 3 19.32 3 18.2 3H6.6Z" stroke="currentColor" stroke-width="2" stroke-linecap="round" stroke-linejoin="round"/><path d="M17.8 14c-1.12 0-1.68 0-2.108.218a2 2 0 0 0-.874.874c-.218.428-.218.988-.218 2.108v.6c0 1.12 0 1.68.218 2.108a2 2 0 0 0 .874.874C16.12 21 16.68 21 17.8 21h.4c1.12 0 1.68 0 2.108-.218a2 2 0 0 0 .874-.874c.218-.428.218-.988.218-2.108v-.6c0-1.12 0-1.68-.218-2.108a2 2 0 0 0-.874-.874C19.88 14 19.32 14 18.2 14h-.4Zm-11 0c-1.12 0-1.68 0-2.108.218a2 2 0 0 0-.874.874C3.6 15.52 3.6 16.08 3.6 17.2v.6c0 1.12 0 1.68.218 2.108a2 2 0 0 0 .874.874C5.12 21 5.68 21 6.8 21h.4c1.12 0 1.68 0 2.108-.218a2 2 0 0 0 .874-.874c.218-.428.218-.988.218-2.108v-.6c0-1.12 0-1.68-.218-2.108a2 2 0 0 0-.874-.874C8.88 14 8.32 14 7.2 14h-.4Z" stroke="currentColor" stroke-opacity=".4" stroke-width="2" stroke-linecap="round" stroke-linejoin="round"/></svg>