<svg fill="none" xmlns="http://www.w3.org/2000/svg" viewBox="0 0 24 24"><path d="M14.121 2.879A3 3 0 1 1 9.88 7.12a3 3 0 0 1 4.24-4.24m7.001 12.999a3 3 0 1 1-4.242 4.242 3 3 0 0 1 4.242-4.242" stroke="currentColor" stroke-width="2" stroke-linecap="round" stroke-linejoin="round"/><path d="m13 7 3 5.5m0 5.5h-5" stroke="currentColor" stroke-width="2"/><path opacity=".4" fill-rule="evenodd" clip-rule="evenodd" d="m9.374 10.985-2.078 3.74a4 4 0 0 1 .532.447l.143.15A4 4 0 1 1 5.4 14.02l2.226-4.006 1.748.97Zm-3.111 5.463a2 2 0 1 0 .29.29l-.139-.152-.15-.138Z" fill="currentColor"/></svg>