<svg fill="none" xmlns="http://www.w3.org/2000/svg" viewBox="0 0 24 24"><path d="M5 10a1 1 0 0 1 1-1h2a1 1 0 0 1 1 1v2a1 1 0 0 1-1 1H6a1 1 0 0 1-1-1v-2Zm0 5a1 1 0 0 1 1-1h2a1 1 0 0 1 1 1v2a1 1 0 0 1-1 1H6a1 1 0 0 1-1-1v-2Z" opacity=".4" fill="currentColor"/><path opacity=".4" d="M8 2h7.6c2.24 0 3.36 0 4.216.436a4 4 0 0 1 1.748 1.748C22 5.04 22 6.16 22 8.4V16" stroke="currentColor" stroke-width="2" stroke-linecap="round" stroke-linejoin="round"/><path d="M11 11h4m-4 5h4m-8.8 5h8.6c1.12 0 1.68 0 2.108-.218a2 2 0 0 0 .874-.874C18 19.48 18 18.92 18 17.8V9.2c0-1.12 0-1.68-.218-2.108a2 2 0 0 0-.874-.874C16.48 6 15.92 6 14.8 6H6.2c-1.12 0-1.68 0-2.108.218a2 2 0 0 0-.874.874C3 7.52 3 8.08 3 9.2v8.6c0 1.12 0 1.68.218 2.108a2 2 0 0 0 .874.874C4.52 21 5.08 21 6.2 21Z" stroke="currentColor" stroke-width="2" stroke-linecap="round" stroke-linejoin="round"/></svg>