<svg fill="none" xmlns="http://www.w3.org/2000/svg" viewBox="0 0 24 24"><path d="M12 17.5h.01m.49 0a.5.5 0 1 1-1 0 .5.5 0 0 1 1 0Z" stroke="currentColor" stroke-width="2" stroke-linecap="round" stroke-linejoin="round"/><g opacity=".4" stroke="currentColor" stroke-width="2" stroke-linecap="round" stroke-linejoin="round"><path d="M5 5.2c0-1.12 0-1.68.218-2.108a2 2 0 0 1 .874-.874C6.52 2 7.08 2 8.2 2h7.6c1.12 0 1.68 0 2.108.218a2 2 0 0 1 .874.874C19 3.52 19 4.08 19 5.2v13.6c0 1.12 0 1.68-.218 2.108a2 2 0 0 1-.874.874C17.48 22 16.92 22 15.8 22H8.2c-1.12 0-1.68 0-2.108-.218a2 2 0 0 1-.874-.874C5 20.48 5 19.92 5 18.8V5.2Z"/><path d="M5 7h14v5H5V7Z"/></g><path d="M5 7h14M5 7v5h14V7M5 7V5.2c0-1.12 0-1.68.218-2.108a2 2 0 0 1 .874-.874C6.52 2 7.08 2 8.2 2h7.6c1.12 0 1.68 0 2.108.218a2 2 0 0 1 .874.874C19 3.52 19 4.08 19 5.2V7" stroke="currentColor" stroke-width="2" stroke-linecap="round" stroke-linejoin="round"/></svg>