<svg fill="none" xmlns="http://www.w3.org/2000/svg" viewBox="0 0 24 24"><path d="M11.47 1.03c-4.1.26-6.93 1.84-8.62 4C1.18 7.16.71 9.79 1.17 12c.9 4.32 4.14 6.07 7.43 7.06l.05.02c.46.14.79.24 1.06.34.22.09.31.15.35.18v.02c0 .12-.05.37-.23.81-.14.34-.27.74-.28 1.13 0 .21.03.48.17.75.16.29.41.49.7.6.48.18 1 .07 1.38-.04.43-.13.94-.34 1.54-.64 1.09-.54 3.16-1.78 5.1-3.54 1.93-1.75 3.84-4.12 4.43-6.94C23.91 6.64 19.49.52 11.47 1.03ZM8.2 13.11H5.19V8.44H6.2v3.81h2v.86Zm1.5 0H8.69V8.44H9.7v4.67Zm4.87 0h-.89l-2.12-3.18v3.18h-.95V8.44h1.03l1.97 2.95V8.44h.96v4.67Zm4.22 0h-3.31V8.44h3.23v.85h-2.23v1.01h2.03v.81h-2.03v1.15h2.3v.85h.01Z" fill="currentColor"/></svg>