<svg fill="none" xmlns="http://www.w3.org/2000/svg" viewBox="0 0 24 24"><path opacity=".4" d="m14.215 12.408-.87.62-2.776-3.93.87-.62a.59.59 0 0 0 .182-.748l-1.224-2.41a.584.584 0 0 0-.86-.211 3.677 3.677 0 0 0-.863 5.112l2.992 4.235a3.637 3.637 0 0 0 5.087.867.59.59 0 0 0 .084-.886l-1.86-1.955a.583.583 0 0 0-.762-.074Z" fill="currentColor"/><path d="M2 6.8c0-1.68 0-2.52.327-3.162a3 3 0 0 1 1.311-1.311C4.28 2 5.12 2 6.8 2h10.4c1.68 0 2.52 0 3.162.327a3 3 0 0 1 1.311 1.311C22 4.28 22 5.12 22 6.8v6.979c0 1.68 0 2.52-.327 3.162a3 3 0 0 1-1.311 1.311c-.642.327-1.482.327-3.162.327H9.232c-.621 0-.932 0-1.23.06a3.05 3.05 0 0 0-.758.266c-.271.137-.514.331-1 .718l-2.946 2.344c-.416.33-.623.496-.798.496a.5.5 0 0 1-.391-.188C2 22.138 2 21.872 2 21.34V6.8Z" stroke="currentColor" stroke-width="2" stroke-linecap="round" stroke-linejoin="round"/></svg>