<svg fill="none" xmlns="http://www.w3.org/2000/svg" viewBox="0 0 24 24"><path d="M12 17.5h.01m.49 0a.5.5 0 1 1-1 0 .5.5 0 0 1 1 0Zm7.621-13.621A3 3 0 1 1 15.88 8.12a3 3 0 0 1 4.24-4.24" stroke="currentColor" stroke-width="2" stroke-linecap="round" stroke-linejoin="round"/><path d="M13 2H8.2c-1.12 0-1.68 0-2.108.218a2 2 0 0 0-.874.874C5 3.52 5 4.08 5 5.2v13.6c0 1.12 0 1.68.218 2.108a2 2 0 0 0 .874.874C6.52 22 7.08 22 8.2 22h7.6c1.12 0 1.68 0 2.108-.218a2 2 0 0 0 .874-.874C19 20.48 19 19.92 19 18.8V12" stroke="currentColor" stroke-width="2" stroke-linecap="round" stroke-linejoin="round"/></svg>