<svg fill="none" xmlns="http://www.w3.org/2000/svg" viewBox="0 0 24 24"><path d="M21.121 1.879A3 3 0 1 1 16.88 6.12a3 3 0 0 1 4.24-4.24Z" fill="currentColor"/><path fill-rule="evenodd" clip-rule="evenodd" d="M20 10.857c0-.638 0-.958-.085-1.15-.096-.219-.15-.285-.347-.42-.173-.12-.62-.206-1.513-.377a4.977 4.977 0 0 1-2.59-1.374A4.984 4.984 0 0 1 14 3.987c.004-1.483.006-2.225-.103-2.44-.136-.267-.17-.301-.437-.438C13.245 1 12.762 1 11.795 1H8.16c-.527 0-.981 0-1.356.03-.395.033-.789.104-1.167.297a3 3 0 0 0-1.311 1.311c-.193.378-.264.772-.296 1.167C4 4.18 4 4.635 4 5.161v13.677c0 .528 0 .982.03 1.357.033.395.104.789.297 1.167a3 3 0 0 0 1.311 1.311c.378.193.772.264 1.167.296.375.031.83.031 1.356.031h7.678c.527 0 .981 0 1.356-.03.395-.033.789-.104 1.167-.297a3 3 0 0 0 1.311-1.311c.193-.378.264-.772.296-1.167.031-.375.031-.83.031-1.356v-7.982ZM10.5 17.5a1.5 1.5 0 1 1 3 0 1.5 1.5 0 0 1-3 0Z" fill="currentColor"/></svg>