<svg fill="none" xmlns="http://www.w3.org/2000/svg" viewBox="0 0 24 24"><path d="M16 20a1 1 0 1 1 0 2H8a1 1 0 1 1 0-2h8Zm6.128-5c.294 0 .44 0 .557.067a.548.548 0 0 1 .22.264c.045.127.022.254-.024.509a3.532 3.532 0 0 1-.317.976 4.002 4.002 0 0 1-1.748 1.748c-.485.248-1.002.346-1.564.392-.541.044-1.206.044-2.01.044H6.758c-.805 0-1.47 0-2.011-.044-.562-.046-1.08-.144-1.564-.392a4.001 4.001 0 0 1-1.748-1.748 3.53 3.53 0 0 1-.317-.976c-.046-.255-.069-.382-.023-.509a.537.537 0 0 1 .22-.264C1.431 15 1.578 15 1.871 15h20.256ZM17.24 2c.805 0 1.47 0 2.011.044.562.046 1.08.144 1.564.392a4.001 4.001 0 0 1 1.748 1.748c.248.485.346 1.002.392 1.564C23 6.29 23 6.954 23 7.758V11.4c0 .56 0 .84-.11 1.054a.999.999 0 0 1-.436.437C22.24 13 21.96 13 21.4 13H2.6c-.56 0-.84 0-1.054-.11a.999.999 0 0 1-.437-.436C1 12.24 1 11.96 1 11.4V7.76c0-.805 0-1.47.044-2.011.046-.562.144-1.08.392-1.564a4.001 4.001 0 0 1 1.748-1.748c.485-.248 1.002-.346 1.564-.392C5.29 2 5.954 2 6.758 2h10.483ZM8 5a1 1 0 0 0-1 1v2a1 1 0 0 0 1 1h8a1 1 0 0 0 1-1V6a1 1 0 0 0-1-1H8Z" fill="currentColor"/></svg>