<svg fill="none" xmlns="http://www.w3.org/2000/svg" viewBox="0 0 24 24"><path d="M12.347 1.243a1 1 0 0 1 1.652.717l-.007.164L13.132 9h6.16c.252 0 .51-.001.72.018.165.015.462.052.744.23l.119.085.127.115a1.5 1.5 0 0 1 .423.903l.007.172c-.006.402-.202.71-.31.865-.06.086-.132.18-.208.274l-.24.29-8.906 10.689a1.001 1.001 0 0 1-1.76-.765L10.867 15h-6.16c-.252 0-.51.002-.72-.017a1.646 1.646 0 0 1-.743-.23l-.12-.086a1.502 1.502 0 0 1-.557-1.19l.01-.146c.044-.33.207-.582.3-.718.12-.173.287-.371.448-.565L12.231 1.36l.116-.117Z" fill="currentColor"/></svg>