<svg fill="none" xmlns="http://www.w3.org/2000/svg" viewBox="0 0 24 24"><path fill-rule="evenodd" clip-rule="evenodd" d="M8.161 1h7.678c.527 0 .981 0 1.356.03.395.033.789.104 1.167.297a3 3 0 0 1 1.311 1.311c.193.378.264.772.296 1.167.031.375.031.83.031 1.356V18.84c0 .527 0 .982-.03 1.356-.033.395-.104.789-.297 1.167a3 3 0 0 1-1.311 1.311c-.378.193-.772.264-1.167.296-.375.031-.83.031-1.356.031H8.16c-.527 0-.981 0-1.356-.03-.395-.033-.789-.104-1.167-.297a3 3 0 0 1-1.311-1.311c-.193-.378-.264-.772-.296-1.167A17.9 17.9 0 0 1 4 18.839V5.16c0-.527 0-.981.03-1.356.033-.395.104-.789.297-1.167a3 3 0 0 1 1.311-1.311c.378-.193.772-.264 1.167-.296C7.18 1 7.635 1 8.161 1ZM10.5 17.5a1.5 1.5 0 1 1 3 0 1.5 1.5 0 0 1-3 0ZM8 5a1 1 0 0 0 0 2h8a1 1 0 1 0 0-2H8Zm0 3.5a1 1 0 0 0 0 2h8a1 1 0 1 0 0-2H8Z" fill="currentColor"/></svg>