<svg fill="none" xmlns="http://www.w3.org/2000/svg" viewBox="0 0 24 24"><path opacity=".4" d="M15.536 8.464c4.686 4.687 6.902 10.069 4.95 12.021-1.953 1.953-7.335-.263-12.022-4.95-4.686-4.686-6.902-10.068-4.95-12.02 1.953-1.953 7.335.263 12.022 4.95Z" stroke="currentColor" stroke-width="2" stroke-linecap="round" stroke-linejoin="round"/><path d="M12 12h.01m3.526 3.536c-4.687 4.686-10.069 6.902-12.021 4.95-1.953-1.953.263-7.335 4.95-12.022 4.686-4.686 10.068-6.902 12.02-4.95 1.953 1.953-.263 7.335-4.95 12.022ZM12.5 12a.5.5 0 1 1-1 0 .5.5 0 0 1 1 0Z" stroke="currentColor" stroke-width="2" stroke-linecap="round" stroke-linejoin="round"/></svg>