<svg fill="none" xmlns="http://www.w3.org/2000/svg" viewBox="0 0 24 24"><path opacity=".4" d="M22 7.2c0-1.12 0-1.68-.218-2.108a2 2 0 0 0-.874-.874C20.48 4 19.92 4 18.8 4h-.4c-2.24 0-3.36 0-4.216.436a4 4 0 0 0-1.748 1.748C12 7.04 12 8.16 12 10.4V20h6.8c1.12 0 1.68 0 2.108-.218a2 2 0 0 0 .874-.874C22 18.48 22 17.92 22 16.8V7.2Z" stroke="currentColor" stroke-width="2" stroke-linecap="round" stroke-linejoin="round"/><path d="M2 7.2c0-1.12 0-1.68.218-2.108a2 2 0 0 1 .874-.874C3.52 4 4.08 4 5.2 4h.4c2.24 0 3.36 0 4.216.436a4 4 0 0 1 1.748 1.748C12 7.04 12 8.16 12 10.4V20H5.2c-1.12 0-1.68 0-2.108-.218a2 2 0 0 1-.874-.874C2 18.48 2 17.92 2 16.8V7.2Z" stroke="currentColor" stroke-width="2" stroke-linecap="round" stroke-linejoin="round"/></svg>