<svg fill="none" xmlns="http://www.w3.org/2000/svg" viewBox="0 0 24 24"><path opacity=".4" d="m2 15 .701-7.015c.027-.266.04-.399.06-.513A3 3 0 0 1 5.485 5.01C5.599 5 5.733 5 6 5m16 10-.701-7.015c-.027-.266-.04-.399-.06-.513a3 3 0 0 0-2.723-2.463C18.402 5 18.268 5 18 5" stroke="currentColor" stroke-width="2" stroke-linecap="round" stroke-linejoin="round"/><path d="M10 14.535a4.008 4.008 0 0 1 4 0m-5.172-2.363a4 4 0 1 1-5.656 5.656 4 4 0 0 1 5.656-5.656Zm12 0a4 4 0 1 1-5.656 5.656 4 4 0 0 1 5.656-5.656Z" stroke="currentColor" stroke-width="2" stroke-linecap="round" stroke-linejoin="round"/></svg>