<svg fill="none" xmlns="http://www.w3.org/2000/svg" viewBox="0 0 24 24"><path opacity=".4" d="M5 10v6.011c0 .36 0 .539.055.697a1 1 0 0 0 .23.374c.118.12.278.2.6.36l5.4 2.7c.262.131.393.197.53.223a.998.998 0 0 0 .37 0c.137-.026.268-.092.53-.223l5.4-2.7c.322-.16.482-.24.6-.36a1 1 0 0 0 .23-.374c.055-.158.055-.338.055-.697V10" stroke="currentColor" stroke-width="2" stroke-linecap="round" stroke-linejoin="round"/><path d="M12.358 3.679a1.066 1.066 0 0 0-.266-.111.5.5 0 0 0-.184 0 1.093 1.093 0 0 0-.266.11L2 8.5l9.642 4.821c.131.066.197.099.266.111.06.012.123.012.184 0 .069-.012.135-.045.266-.11L22 8.5l-9.642-4.82Z" stroke="currentColor" stroke-width="2" stroke-linecap="round" stroke-linejoin="round"/></svg>