<svg fill="none" xmlns="http://www.w3.org/2000/svg" viewBox="0 0 24 24"><path fill-rule="evenodd" clip-rule="evenodd" d="M20.12 1.676a1.53 1.53 0 0 1 .592 0c.31.066.59.228.803.464.163.181.247.375.296.512.042.118.079.256.11.37l1.41 5.261c.03.115.067.253.09.376.026.144.05.353 0 .592a1.5 1.5 0 0 1-.464.803 1.508 1.508 0 0 1-.512.296 5.306 5.306 0 0 1-.371.11l-.06.015a17.41 17.41 0 0 1-1.318.322c-.39.071-.789.104-1.204.016a2.998 2.998 0 0 1-1.018-.424l-4.025 1.078c.347.49.551 1.088.551 1.733 0 .664-.215 1.277-.58 1.774l4.406 6.463a1 1 0 1 1-1.652 1.126l-4.406-6.462a3.003 3.003 0 0 1-1.535 0l-4.407 6.462a1 1 0 1 1-1.652-1.126l4.406-6.463a2.986 2.986 0 0 1-.567-2.05l-2.118.567a4.695 4.695 0 0 1-.376.09 1.49 1.49 0 0 1-.592 0 1.5 1.5 0 0 1-.923-.618l-1.266.339c-.115.03-.252.067-.376.09a1.51 1.51 0 0 1-.591 0 1.5 1.5 0 0 1-.803-.464 1.508 1.508 0 0 1-.296-.512 4.794 4.794 0 0 1-.11-.37l-.374-1.398c-.031-.115-.068-.252-.09-.376a1.508 1.508 0 0 1 0-.591 1.5 1.5 0 0 1 .463-.803c.182-.164.375-.247.512-.296.119-.042.256-.08.371-.11l1.266-.34a1.5 1.5 0 0 1 .49-.997c.182-.163.375-.246.512-.295.119-.043.256-.08.371-.11l11.579-3.103a3 3 0 0 1 .67-.876c.316-.284.677-.455 1.05-.588.354-.127.794-.244 1.303-.38l.06-.017a4.93 4.93 0 0 1 .375-.09Zm-.073 2.08c-.45.12-.756.206-.991.29-.257.092-.345.154-.386.191a1 1 0 0 0-.309.536c-.011.054-.022.16.027.43.051.279.147.639.296 1.195l.155.58c.15.557.247.916.342 1.184.092.257.155.344.192.385a1 1 0 0 0 .535.31c.054.011.161.021.43-.028.245-.044.553-.124 1.003-.244l-1.294-4.83Z" fill="currentColor"/></svg>