<svg fill="none" xmlns="http://www.w3.org/2000/svg" viewBox="0 0 24 24"><path opacity=".4" d="M13.121 14.845 18 22m-7.121-7.155L6 22m8-8.8a2 2 0 1 1-4 0 2 2 0 0 1 4 0Z" stroke="currentColor" stroke-width="2" stroke-linecap="round" stroke-linejoin="round"/><path d="M4.798 8.67c-.072-.27-.108-.406-.083-.524a.5.5 0 0 1 .154-.267c.09-.08.225-.117.495-.19l11.784-3.157 1.294 4.83L6.658 12.52c-.27.072-.405.108-.523.083a.5.5 0 0 1-.268-.154c-.08-.09-.116-.225-.189-.495l-.88-3.284Z" stroke="currentColor" stroke-width="2" stroke-linecap="round" stroke-linejoin="round"/><path d="M17.718 6.657c-.29-1.082-.435-1.623-.335-2.092A2 2 0 0 1 18 3.495c.357-.322.898-.467 1.98-.757.27-.072.405-.109.523-.084a.5.5 0 0 1 .267.155c.08.09.117.224.19.495l1.397 5.216c.072.27.109.406.084.523a.5.5 0 0 1-.155.268c-.089.08-.224.116-.495.189-1.082.29-1.623.434-2.092.335a2 2 0 0 1-1.07-.618c-.322-.357-.467-.898-.757-1.98l-.155-.58ZM2.16 10.412c-.073-.27-.11-.406-.084-.523a.5.5 0 0 1 .154-.268c.09-.08.225-.116.495-.189l1.352-.362c.271-.073.406-.109.524-.084a.5.5 0 0 1 .267.155c.08.089.117.224.19.495l.362 1.352c.072.27.108.406.083.523a.5.5 0 0 1-.154.268c-.09.08-.225.116-.495.189l-1.352.362c-.27.072-.406.109-.524.084a.5.5 0 0 1-.267-.155c-.08-.089-.117-.224-.19-.495l-.362-1.352Z" stroke="currentColor" stroke-width="2" stroke-linecap="round" stroke-linejoin="round"/></svg>