<svg fill="none" xmlns="http://www.w3.org/2000/svg" viewBox="0 0 24 24"><path opacity=".4" d="M9.514 2.915a3.832 3.832 0 0 1-2.18.904 3.832 3.832 0 0 0-3.515 3.515 3.832 3.832 0 0 1-.904 2.18 3.832 3.832 0 0 0 0 4.972c.523.613.84 1.376.904 2.18a3.832 3.832 0 0 0 3.515 3.515 3.82 3.82 0 0 1 2.18.904 3.832 3.832 0 0 0 4.972 0 3.832 3.832 0 0 1 2.18-.904 3.832 3.832 0 0 0 3.515-3.515 3.82 3.82 0 0 1 .904-2.18 3.832 3.832 0 0 0 0-4.972 3.832 3.832 0 0 1-.904-2.18 3.832 3.832 0 0 0-3.515-3.515 3.832 3.832 0 0 1-2.18-.904 3.832 3.832 0 0 0-4.972 0Z" stroke="currentColor" stroke-width="2" stroke-linecap="round" stroke-linejoin="round"/><path d="m9 12 2 2 4.5-4.5" stroke="currentColor" stroke-width="2" stroke-linecap="round" stroke-linejoin="round"/></svg>