<svg fill="none" xmlns="http://www.w3.org/2000/svg" viewBox="0 0 24 24"><path opacity=".4" d="m21 18-1 1.094A2.71 2.71 0 0 1 18 20c-.75 0-1.47-.326-2-.906a2.716 2.716 0 0 0-2-.904c-.75 0-1.469.325-2 .904" stroke="currentColor" stroke-width="2" stroke-linecap="round" stroke-linejoin="round"/><path d="M3 18.326c0-.49 0-.734.055-.965a2 2 0 0 1 .24-.578c.123-.201.296-.374.642-.72L16.5 3.5a2.121 2.121 0 0 1 3 3L6.937 19.063c-.346.346-.519.519-.72.642-.18.11-.374.19-.578.24-.23.055-.475.055-.964.055H3v-1.674Z" stroke="currentColor" stroke-width="2" stroke-linecap="round" stroke-linejoin="round"/></svg>