<svg fill="none" xmlns="http://www.w3.org/2000/svg" viewBox="0 0 24 24"><path opacity=".4" d="M10.742 5.092C11.15 5.032 11.569 5 12 5c5.105 0 8.455 4.505 9.58 6.287.137.215.205.323.243.49a1.2 1.2 0 0 1 0 .447c-.038.166-.107.274-.244.492-.3.474-.757 1.141-1.363 1.865M6.724 6.715c-2.162 1.467-3.63 3.504-4.303 4.57-.137.217-.206.325-.244.492a1.173 1.173 0 0 0 0 .446c.038.167.107.274.243.49C3.545 14.495 6.895 19 12 19c2.058 0 3.832-.732 5.288-1.723" stroke="currentColor" stroke-width="2" stroke-linecap="round" stroke-linejoin="round"/><path d="m3 3 18 18M9.879 9.879a3 3 0 1 0 4.243 4.243" stroke="currentColor" stroke-width="2" stroke-linecap="round" stroke-linejoin="round"/></svg>