<svg fill="none" xmlns="http://www.w3.org/2000/svg" viewBox="0 0 24 24"><path d="M10 12a2 2 0 1 1 4 0 2 2 0 0 1-4 0Z" fill="currentColor"/><path fill-rule="evenodd" clip-rule="evenodd" d="M12 4C9.138 4 6.805 5.265 5.077 6.707c-1.727 1.441-2.91 3.107-3.503 4.046l-.024.038c-.117.185-.27.425-.347.762a2.159 2.159 0 0 0 0 .894c.077.337.23.577.347.762l.024.038c.593.939 1.776 2.605 3.503 4.046C6.805 18.735 9.138 20 12 20s5.195-1.265 6.923-2.707c1.727-1.441 2.91-3.107 3.503-4.046l.024-.038c.117-.185.27-.425.347-.762a2.16 2.16 0 0 0 0-.894c-.077-.337-.23-.577-.347-.762l-.024-.038c-.593-.939-1.776-2.605-3.503-4.046C17.195 5.265 14.862 4 12 4Zm0 4a4 4 0 1 0 0 8 4 4 0 0 0 0-8Z" fill="currentColor"/></svg>