<svg fill="none" xmlns="http://www.w3.org/2000/svg" viewBox="0 0 24 24"><path fill-rule="evenodd" clip-rule="evenodd" d="M2.293 2.293a1 1 0 0 1 1.414 0l18 18a1 1 0 0 1-1.414 1.414l-3.154-3.154C15.694 19.4 13.972 20 12 20c-2.862 0-5.195-1.265-6.923-2.707-1.727-1.441-2.91-3.107-3.503-4.046l-.024-.038a2.321 2.321 0 0 1-.347-.762 2.16 2.16 0 0 1 0-.894c.077-.337.23-.578.348-.764l.024-.038c.603-.953 1.826-2.676 3.62-4.141L2.293 3.707a1 1 0 0 1 0-1.414Zm6.26 7.675a4 4 0 0 0 5.478 5.478l-1.513-1.514a2 2 0 0 1-2.45-2.45L8.554 9.968Z" fill="currentColor"/><path d="M15.992 11.75a4 4 0 0 0-3.742-3.742L8.792 4.549A9.682 9.682 0 0 1 12 4c2.862 0 5.195 1.265 6.923 2.707 1.727 1.441 2.91 3.107 3.503 4.046l.024.038c.117.185.27.425.347.762a2.16 2.16 0 0 1 0 .894c-.077.337-.23.577-.347.762l-.024.038a18.405 18.405 0 0 1-2.158 2.779l-4.276-4.276Z" fill="currentColor"/></svg>