<svg fill="none" xmlns="http://www.w3.org/2000/svg" viewBox="0 0 24 24"><path fill-rule="evenodd" clip-rule="evenodd" d="M12.523 1.336a2 2 0 0 0-1.046 0c-.397.108-.732.37-.999.58l-.074.059-6.86 5.335c-.377.292-.709.55-.956.884a3 3 0 0 0-.477.975c-.112.4-.112.82-.111 1.298v7.371c0 .528 0 .982.03 1.357.033.395.104.789.297 1.167a3 3 0 0 0 1.311 1.311c.378.193.772.264 1.167.296.375.031.83.031 1.356.031H17.84c.527 0 .981 0 1.356-.03.395-.033.789-.104 1.167-.297a3 3 0 0 0 1.311-1.311c.193-.378.264-.772.296-1.167.031-.375.031-.83.031-1.356v-7.372c0-.477.001-.897-.111-1.298a2.999 2.999 0 0 0-.477-.975c-.247-.334-.58-.592-.956-.884l-6.86-5.335-.074-.059c-.267-.21-.602-.472-1-.58ZM9.094 13.751a1 1 0 1 0-1.936.498 5.002 5.002 0 0 0 9.684 0 1 1 0 1 0-1.936-.498 3.002 3.002 0 0 1-5.812 0Z" fill="currentColor"/></svg>