<svg fill="none" xmlns="http://www.w3.org/2000/svg" viewBox="0 0 24 24"><path fill-rule="evenodd" clip-rule="evenodd" d="M16.207 7.793a1 1 0 0 1 0 1.414l-7 7a1 1 0 0 1-1.414-1.414l7-7a1 1 0 0 1 1.414 0ZM9 1a1 1 0 0 1 1 1v2a1 1 0 1 1-2 0V2a1 1 0 0 1 1-1Zm6 18a1 1 0 0 1 1 1v2a1 1 0 1 1-2 0v-2a1 1 0 0 1 1-1ZM2 8h2a1 1 0 0 1 0 2H2a1 1 0 1 1 0-2Zm17 7a1 1 0 0 1 1-1h2a1 1 0 1 1 0 2h-2a1 1 0 0 1-1-1ZM2.793 2.793a1 1 0 0 1 1.414 0l1.414 1.414a1 1 0 0 1-1.414 1.414L2.793 4.207a1 1 0 0 1 0-1.414Zm15.586 15.586a1 1 0 0 1 1.414 0l1.414 1.414a1 1 0 1 1-1.414 1.414l-1.414-1.414a1 1 0 0 1 0-1.414Z" fill="currentColor"/><path fill-rule="evenodd" clip-rule="evenodd" d="M13.414 3.515a5 5 0 0 1 7.071 7.07l-2.121 2.122a1 1 0 0 1-1.414-1.414l2.12-2.123a3 3 0 1 0-4.243-4.242l-2.12 2.121a1 1 0 1 1-1.415-1.414l2.121-2.121ZM7.05 11.293a1 1 0 0 1 0 1.414l-2.12 2.121a3 3 0 0 0 4.243 4.243l2.12-2.121a1 1 0 1 1 1.415 1.414l-2.121 2.121a5 5 0 0 1-7.071-7.07l2.121-2.122a1 1 0 0 1 1.414 0Z" fill="currentColor"/></svg>