<svg fill="none" xmlns="http://www.w3.org/2000/svg" viewBox="0 0 24 24"><path fill-rule="evenodd" clip-rule="evenodd" d="M19.778 4.222c-4.296-4.296-11.26-4.296-15.556 0-4.296 4.296-4.296 11.26 0 15.556 4.296 4.296 11.26 4.296 15.556 0 4.296-4.296 4.296-11.26 0-15.556ZM13.123 3.07a8.961 8.961 0 0 1 5.24 2.566 9.013 9.013 0 0 1 1.432 1.865 3.77 3.77 0 0 1-1.178 5.028 3.778 3.778 0 0 1-4.313-.09l-.906-.66.66-.906a5.778 5.778 0 0 0-.935-7.803ZM7.431 4.243a9.018 9.018 0 0 0-1.795 1.393 8.961 8.961 0 0 0-2.566 5.242 5.778 5.778 0 0 1 7.802-.935l.908.66.66-.906a3.778 3.778 0 0 0 .073-4.338 3.77 3.77 0 0 0-5.01-1.153 1.015 1.015 0 0 1-.072.037ZM4.238 16.558a8.996 8.996 0 0 0 1.398 1.805 8.961 8.961 0 0 0 5.241 2.567 5.783 5.783 0 0 1-.933-7.801l.66-.908-.908-.66a3.778 3.778 0 0 0-4.337-.073A3.773 3.773 0 0 0 4.206 16.5l.032.058Zm12.294 3.22a9.017 9.017 0 0 0 1.831-1.415 8.96 8.96 0 0 0 2.566-5.24 5.778 5.778 0 0 1-1.169 1.048 5.778 5.778 0 0 1-6.632-.114l-.906-.66-.66.908a3.776 3.776 0 0 0-.09 4.312l.01.015.007.01a3.773 3.773 0 0 0 5.043 1.136Z" fill="currentColor"/></svg>