<svg fill="none" xmlns="http://www.w3.org/2000/svg" viewBox="0 0 24 24"><path opacity=".4" d="M8.377 15.616 2.72 21.273" stroke="currentColor" stroke-width="2" stroke-linecap="round" stroke-linejoin="round"/><path d="M13.102 3.646c.312-.727.468-1.091.72-1.256a1 1 0 0 1 .748-.144c.295.06.575.34 1.134.9l5.144 5.142c.56.56.84.84.9 1.135a1 1 0 0 1-.145.748c-.165.252-.529.408-1.256.72l-2.495 1.068c-.106.046-.159.068-.208.097a1.004 1.004 0 0 0-.126.085c-.045.036-.085.076-.167.158l-1.56 1.56c-.128.128-.192.191-.242.264a1.002 1.002 0 0 0-.111.207c-.032.082-.05.17-.085.347l-.733 3.665c-.19.952-.286 1.428-.537 1.65a1 1 0 0 1-.801.243c-.332-.046-.676-.39-1.363-1.076l-7.085-7.085c-.687-.687-1.03-1.03-1.076-1.363A1 1 0 0 1 4 9.91c.223-.251.699-.346 1.651-.537l3.665-.733a2.11 2.11 0 0 0 .347-.085 1 1 0 0 0 .207-.11 2.1 2.1 0 0 0 .263-.242l1.561-1.561c.082-.082.122-.122.158-.167a.998.998 0 0 0 .085-.126c.029-.05.051-.102.097-.208l1.068-2.495Z" stroke="currentColor" stroke-width="2" stroke-linecap="round" stroke-linejoin="round"/></svg>