<svg fill="none" xmlns="http://www.w3.org/2000/svg" viewBox="0 0 24 24"><path fill-rule="evenodd" clip-rule="evenodd" d="M8.523 1h-.051c-.19 0-.43-.001-.665.055a2 2 0 0 0-.578.24c-.206.126-.375.296-.509.43l-.036.036-4.922 4.923-.037.036a2.794 2.794 0 0 0-.43.51 2 2 0 0 0-.24.577C1 8.043 1 8.282 1 8.472v7.056c0 .19-.001.43.055.665.05.204.13.399.24.578.126.206.296.375.43.509l.037.036 4.922 4.922.036.037c.134.134.303.304.51.43a2 2 0 0 0 .577.24c.236.056.475.055.665.055h7.056c.19 0 .43.001.665-.055a2 2 0 0 0 .578-.24c.206-.126.375-.296.509-.43l.036-.037 4.922-4.922.037-.036c.134-.134.304-.303.43-.51.11-.178.19-.373.24-.577a2.8 2.8 0 0 0 .055-.665V8.472c0-.19.001-.43-.055-.665a2.02 2.02 0 0 0-.24-.578 2.798 2.798 0 0 0-.43-.509l-.037-.036-4.922-4.923-.036-.036a2.795 2.795 0 0 0-.51-.43 2 2 0 0 0-.577-.24C15.957 1 15.718 1 15.528 1H8.523ZM19.07 17.656l1.754-1.754c.093-.093.139-.14.171-.175l.002-.002v-.004c.003-.047.003-.113.003-.244V8.523c0-.131 0-.197-.002-.244v-.004l-.003-.002a6.16 6.16 0 0 0-.17-.175l-4.923-4.922a6.19 6.19 0 0 0-.175-.171l-.002-.002h-.004A6.18 6.18 0 0 0 15.477 3H8.523c-.131 0-.197 0-.244.002h-.004l-.002.003c-.67.61-1.929 1.925-1.929 1.925L19.07 17.656ZM4.93 6.344 17.656 19.07l-1.754 1.754a6.345 6.345 0 0 1-.175.171l-.002.002h-.004a6.125 6.125 0 0 1-.244.003H8.523c-.131 0-.197 0-.244-.003h-.004l-.002-.002a6.356 6.356 0 0 1-.175-.17l-4.922-4.923a6.29 6.29 0 0 1-.171-.175l-.002-.002v-.004A6.186 6.186 0 0 1 3 15.477V8.523c0-.131 0-.197.002-.244v-.004l.003-.002a6.21 6.21 0 0 1 .17-.175L4.93 6.344Z" fill="currentColor"/></svg>