<svg fill="none" xmlns="http://www.w3.org/2000/svg" viewBox="0 0 24 24"><path opacity=".4" d="M12 2v2.5m0 15V22M4.5 12H2m20 0h-2.5m-.422 7.078-1.773-1.773M4.922 19.078l1.775-1.775M4.922 5l1.736 1.736" stroke="currentColor" stroke-width="2" stroke-linecap="round" stroke-linejoin="round"/><path d="M19.078 5 13.5 10.5M22 12c0 5.523-4.477 10-10 10S2 17.523 2 12 6.477 2 12 2s10 4.477 10 10Zm-8 0a2 2 0 1 1-4 0 2 2 0 0 1 4 0Z" stroke="currentColor" stroke-width="2" stroke-linecap="round" stroke-linejoin="round"/></svg>