<svg fill="none" xmlns="http://www.w3.org/2000/svg" viewBox="0 0 24 24"><path d="M7 1a1 1 0 0 0 0 2h1a1 1 0 0 0 0-2H7Zm2.223 6.363L10.132 6H2a1 1 0 0 1 0-2h12a1 1 0 1 1 0 2h-1.465l-1.703 2.555a1.002 1.002 0 0 1-.125.152L8.914 10.5l1.793 1.793a1 1 0 0 1-1.414 1.414L7.5 11.914l-2.793 2.793a1 1 0 0 1-1.414-1.414L6.086 10.5 4.293 8.707a1 1 0 0 1 1.414-1.414L7.5 9.086l1.723-1.723Z" fill="currentColor"/><path fill-rule="evenodd" clip-rule="evenodd" d="M15.848 9.308a1.5 1.5 0 0 1 1.304 0c.359.173.553.475.65.637.1.17.205.387.306.6l2.872 6.005.019.038 1.903 3.98a1 1 0 1 1-1.804.863L19.457 18h-5.914l-1.64 3.431a1 1 0 1 1-1.805-.863L12 16.588a.92.92 0 0 1 .019-.038l2.872-6.005a7.99 7.99 0 0 1 .306-.6c.097-.162.291-.464.65-.637ZM18.5 16l-2-4.182-2 4.182h4Z" fill="currentColor"/></svg>