<svg fill="none" xmlns="http://www.w3.org/2000/svg" viewBox="0 0 24 24"><path fill-rule="evenodd" clip-rule="evenodd" d="M6.5 3a1 1 0 0 1 1-1h.01a1 1 0 0 1 0 2H7.5a1 1 0 0 1-1-1Zm0 9a1 1 0 0 1 1-1h.01a1 1 0 1 1 0 2H7.5a1 1 0 0 1-1-1Zm0 9a1 1 0 0 1 1-1h.01a1 1 0 1 1 0 2H7.5a1 1 0 0 1-1-1Zm9-18a1 1 0 0 1 1-1h.01a1 1 0 1 1 0 2h-.01a1 1 0 0 1-1-1Zm0 9a1 1 0 0 1 1-1h.01a1 1 0 1 1 0 2h-.01a1 1 0 0 1-1-1Zm0 9a1 1 0 0 1 1-1h.01a1 1 0 1 1 0 2h-.01a1 1 0 0 1-1-1ZM11 3a1 1 0 0 1 1-1h.01a1 1 0 1 1 0 2H12a1 1 0 0 1-1-1Zm0 9a1 1 0 0 1 1-1h.01a1 1 0 1 1 0 2H12a1 1 0 0 1-1-1Zm0 9a1 1 0 0 1 1-1h.01a1 1 0 1 1 0 2H12a1 1 0 0 1-1-1Zm0-4.5a1 1 0 0 1 1-1h.01a1 1 0 1 1 0 2H12a1 1 0 0 1-1-1Zm0-9a1 1 0 0 1 1-1h.01a1 1 0 1 1 0 2H12a1 1 0 0 1-1-1ZM2 3a1 1 0 0 1 1-1h.01a1 1 0 0 1 0 2H3a1 1 0 0 1-1-1Zm0 9a1 1 0 0 1 1-1h.01a1 1 0 1 1 0 2H3a1 1 0 0 1-1-1Zm0 9a1 1 0 0 1 1-1h.01a1 1 0 1 1 0 2H3a1 1 0 0 1-1-1Zm0-4.5a1 1 0 0 1 1-1h.01a1 1 0 1 1 0 2H3a1 1 0 0 1-1-1Zm0-9a1 1 0 0 1 1-1h.01a1 1 0 0 1 0 2H3a1 1 0 0 1-1-1ZM21 2a1 1 0 0 1 1 1v18a1 1 0 1 1-2 0V3a1 1 0 0 1 1-1Z" fill="currentColor"/></svg>