<svg fill="none" xmlns="http://www.w3.org/2000/svg" viewBox="0 0 24 24"><path opacity=".4" d="M21 11.5a8.5 8.5 0 0 1-11.555 7.934c-.173-.066-.26-.1-.329-.116a.901.901 0 0 0-.186-.024 2.313 2.313 0 0 0-.303.021l-5.121.53c-.489.05-.733.075-.877-.013a.5.5 0 0 1-.233-.35c-.026-.166.09-.382.324-.814l1.635-3.027c.135-.25.202-.374.233-.494a.899.899 0 0 0 .028-.326c-.01-.123-.064-.283-.173-.604A8.5 8.5 0 1 1 21 11.5Z" stroke="currentColor" stroke-width="2" stroke-linecap="round" stroke-linejoin="round"/><path clip-rule="evenodd" d="M12.497 8.95c-.9-1.04-2.4-1.319-3.527-.368-1.128.951-1.286 2.542-.401 3.667.548.697 1.925 1.97 2.893 2.838.356.319.533.478.747.542.183.055.393.055.576 0 .213-.064.391-.223.747-.542.968-.868 2.345-2.14 2.893-2.838a2.606 2.606 0 0 0-.4-3.667c-1.147-.941-2.628-.672-3.528.367Z" stroke="currentColor" stroke-width="2" stroke-linecap="round" stroke-linejoin="round"/></svg>