<svg fill="none" xmlns="http://www.w3.org/2000/svg" viewBox="0 0 24 24"><path opacity=".4" d="M6.094 11.229A8.01 8.01 0 0 1 6 10c0-4.418 3.605-8 8.053-8 4.447 0 8.052 3.582 8.052 8a7.94 7.94 0 0 1-.52 2.835c-.07.182-.105.274-.12.345a.897.897 0 0 0-.024.194c-.002.073.008.153.028.314l.403 3.27c.043.355.065.532.006.66a.5.5 0 0 1-.257.252c-.13.055-.306.03-.66-.022l-3.184-.467a2.313 2.313 0 0 0-.326-.036.898.898 0 0 0-.2.021 2.989 2.989 0 0 0-.358.122 8.174 8.174 0 0 1-4.07.42" stroke="currentColor" stroke-width="2" stroke-linecap="round" stroke-linejoin="round"/><path d="M13 16.5c0 3.038-2.403 5.5-5.368 5.5a5.246 5.246 0 0 1-1.75-.299c-.208-.073-.312-.11-.382-.124a.843.843 0 0 0-.189-.019c-.071 0-.153.01-.316.033L2 22l.611-2.762c.04-.18.06-.271.065-.351a.852.852 0 0 0-.01-.213 3.496 3.496 0 0 0-.126-.427 5.617 5.617 0 0 1-.277-1.747c0-3.038 2.404-5.5 5.369-5.5S13 13.462 13 16.5Z" stroke="currentColor" stroke-width="2" stroke-linecap="round" stroke-linejoin="round"/></svg>