<svg fill="none" xmlns="http://www.w3.org/2000/svg" viewBox="0 0 24 24"><path opacity=".4" d="M11.707 3.036a8.5 8.5 0 0 0-7.264 11.18c.109.322.163.482.173.605a.9.9 0 0 1-.028.326c-.03.12-.098.244-.233.494L2.72 18.668c-.234.432-.35.648-.324.815a.5.5 0 0 0 .233.35c.144.087.388.062.877.011l5.12-.53c.156-.015.233-.023.304-.02.07.002.119.009.186.024.07.016.156.05.33.116a8.5 8.5 0 0 0 11.52-7.153" stroke="currentColor" stroke-width="2" stroke-linecap="round" stroke-linejoin="round"/><path d="M20.121 3.879A3 3 0 1 1 15.88 8.12a3 3 0 0 1 4.24-4.24Z" stroke="currentColor" stroke-width="2" stroke-linecap="round" stroke-linejoin="round"/></svg>