<svg fill="none" xmlns="http://www.w3.org/2000/svg" viewBox="0 0 24 24"><path opacity=".4" d="M5.476 12.863a18.998 18.998 0 0 1-2.304-5.102c-.16-.564-.24-.846-.242-1.26a3.377 3.377 0 0 1 .385-1.478c.202-.36.467-.624.996-1.154l.158-.158C5 3.18 5.266 2.914 5.55 2.77a2 2 0 0 1 1.806 0c.285.144.55.41 1.082.941l.195.195c.35.35.525.525.639.7a2 2 0 0 1 0 2.18c-.114.177-.29.351-.639.701a2.02 2.02 0 0 0-.219.238c-.17.238-.229.582-.147.862.023.08.053.142.113.266.12.252.25.5.385.747" stroke="currentColor" stroke-width="2" stroke-linecap="round" stroke-linejoin="round"/><path d="m11.182 12.818.045.045a14.603 14.603 0 0 0 4.01 2.846c.125.06.187.09.266.113.28.082.624.023.862-.147.067-.048.124-.105.238-.22.35-.349.524-.524.7-.638a2 2 0 0 1 2.18 0c.176.114.351.29.7.639l.196.195c.531.531.797.797.941 1.082a2 2 0 0 1 0 1.806c-.144.285-.41.55-.941 1.082l-.158.158c-.53.53-.794.794-1.154.997a3.39 3.39 0 0 1-1.479.384c-.413-.001-.695-.081-1.26-.241a19.039 19.039 0 0 1-8.283-4.874L8 16M21 3 3 21" stroke="currentColor" stroke-width="2" stroke-linecap="round" stroke-linejoin="round"/></svg>