<svg fill="none" xmlns="http://www.w3.org/2000/svg" viewBox="0 0 24 24"><path fill-rule="evenodd" clip-rule="evenodd" d="M16.056 21.88a20.039 20.039 0 0 1-8.718-5.128 20.038 20.038 0 0 1-5.144-8.774c-.148-.52-.262-.922-.264-1.473a4.365 4.365 0 0 1 .513-1.971c.531-.946 1.672-2.158 2.657-2.657a3 3 0 0 1 2.708 0c.842.426 1.78 1.38 2.303 2.184a3 3 0 0 1 0 3.27c-.173.267-.42.514-.706.8-.09.089-.188.153-.123.29a13.602 13.602 0 0 0 2.652 3.735 13.602 13.602 0 0 0 3.736 2.652c.14.067.196-.029.29-.122.285-.287.532-.534.798-.707a3 3 0 0 1 3.27 0c.784.509 1.762 1.467 2.185 2.303a3 3 0 0 1 0 2.708c-.499.985-1.71 2.126-2.657 2.657a4.35 4.35 0 0 1-1.97.513c-.552-.002-.955-.116-1.474-.264l-.056-.016Z" fill="currentColor"/></svg>