<svg fill="none" xmlns="http://www.w3.org/2000/svg" viewBox="0 0 24 24"><path d="M8.38 8.853a14.603 14.603 0 0 0 2.847 4.01 14.601 14.601 0 0 0 4.01 2.846c.125.06.187.09.266.113.28.082.625.023.862-.147.067-.048.124-.105.238-.22.35-.349.525-.524.7-.638a2 2 0 0 1 2.18 0c.177.114.351.29.701.639l.195.195c.531.531.797.797.941 1.082a2 2 0 0 1 0 1.806c-.144.285-.41.55-.941 1.082l-.158.158c-.53.53-.794.794-1.154.997a3.39 3.39 0 0 1-1.479.384c-.412-.001-.695-.081-1.26-.242a19.039 19.039 0 0 1-8.283-4.873A19.038 19.038 0 0 1 3.172 7.76c-.16-.564-.24-.846-.242-1.26a3.377 3.377 0 0 1 .385-1.478c.202-.36.467-.624.996-1.154l.158-.158c.531-.53.797-.796 1.081-.94a2 2 0 0 1 1.806 0c.285.144.55.41 1.082.941l.195.195c.35.35.525.525.639.7a2 2 0 0 1 0 2.18c-.114.176-.29.351-.639.7a2.02 2.02 0 0 0-.219.24c-.17.237-.229.58-.147.861.023.08.053.141.113.266Z" stroke="currentColor" stroke-width="2" stroke-linecap="round" stroke-linejoin="round"/></svg>