<svg fill="none" xmlns="http://www.w3.org/2000/svg" viewBox="0 0 24 24"><path opacity=".4" d="M12 19v-7" stroke="currentColor" stroke-width="2" stroke-linecap="round" stroke-linejoin="round"/><path d="M4.733 21.425c-.548.182-.822.273-.99.206a.5.5 0 0 1-.3-.332c-.048-.174.071-.437.309-.963L11.306 3.62c.233-.514.349-.77.51-.85a.5.5 0 0 1 .443 0c.16.08.276.338.506.852l7.489 16.713c.236.526.354.79.305.964a.5.5 0 0 1-.3.33c-.169.067-.442-.025-.989-.208l-6.979-2.336a1.06 1.06 0 0 0-.188-.054.5.5 0 0 0-.129 0 1.049 1.049 0 0 0-.188.053l-7.053 2.34Z" stroke="currentColor" stroke-width="2" stroke-linecap="round" stroke-linejoin="round"/></svg>