<svg fill="none" xmlns="http://www.w3.org/2000/svg" viewBox="0 0 24 24"><path opacity=".4" d="M10.5 12H5" stroke="currentColor" stroke-width="2" stroke-linecap="round" stroke-linejoin="round"/><path d="M2.574 4.73c-.182-.547-.272-.82-.206-.99a.5.5 0 0 1 .331-.298c.174-.049.437.07.962.306L20.38 11.27c.514.23.771.347.85.507a.5.5 0 0 1 0 .444c-.079.16-.336.276-.85.508L3.667 20.25c-.527.237-.79.355-.965.307a.5.5 0 0 1-.331-.3c-.066-.169.026-.443.21-.99l2.334-6.976a1.06 1.06 0 0 0 .054-.188.5.5 0 0 0 0-.129c-.006-.048-.022-.095-.053-.188L2.574 4.729Z" stroke="currentColor" stroke-width="2" stroke-linecap="round" stroke-linejoin="round"/></svg>