<svg fill="none" xmlns="http://www.w3.org/2000/svg" viewBox="0 0 24 24"><path d="m5.333 6 1.938 3.254M19.11 6l-1.938 3.254M2 18c.446-5.125 4.753-9.145 10-9.145s9.554 4.02 10 9.145H2Z" stroke="currentColor" stroke-width="2" stroke-linecap="round" stroke-linejoin="round"/><path d="M7.879 12.612a1.704 1.704 0 1 1-1.87 1.87L6 14.306l.009-.174c.087-.86.814-1.53 1.695-1.53l.175.01Zm8.159 0a1.704 1.704 0 1 1-1.87 1.87l-.009-.175.009-.174c.087-.86.815-1.53 1.696-1.53l.174.01Z" fill="currentColor" fill-opacity=".4"/></svg>