<svg fill="none" xmlns="http://www.w3.org/2000/svg" viewBox="0 0 24 24"><path fill-rule="evenodd" clip-rule="evenodd" d="M19.622 5.14a1 1 0 0 0-1.314.263l-.057.085-1.931 3.245A11.012 11.012 0 0 0 12 7.854c-1.396 0-2.732.261-3.962.734l-1.845-3.1-.057-.085a1 1 0 0 0-1.71 1.018l.048.09 1.764 2.965a11.02 11.02 0 0 0-5.234 8.437A1 1 0 0 0 2 19h20a1 1 0 0 0 .996-1.087 11.015 11.015 0 0 0-4.914-8.232l1.888-3.17.048-.09a1 1 0 0 0-.396-1.28ZM7.88 12.612a1.704 1.704 0 1 1-1.87 1.87L6 14.306l.009-.174c.087-.86.814-1.53 1.695-1.53l.175.01Zm9.69 1.695c0-.883-.673-1.607-1.53-1.695l-.175-.008c-.881 0-1.609.669-1.696 1.529l-.009.174.009.175a1.705 1.705 0 0 0 3.4-.175Z" fill="currentColor"/></svg>