<svg fill="none" xmlns="http://www.w3.org/2000/svg" viewBox="0 0 24 24"><path d="M15.9 2c.113 1.816-.676 3.166-2.101 4.167-.536.377-1.158.485-1.853.429.023-.333.012-.672.074-.997a4.449 4.449 0 0 1 3.545-3.561c.036-.007.07-.025.105-.038h.23Zm3.557 6.827c-1.465.947-2.21 2.28-2.082 4.085.127 1.793 1.059 2.997 2.625 3.766-.105.281-.195.55-.306.81-.568 1.35-1.327 2.577-2.312 3.649-.747.813-1.665 1.007-2.694.675-.394-.127-.78-.28-1.169-.424-.815-.3-1.624-.258-2.432.03-.486.172-.972.349-1.465.5-.612.188-1.188.045-1.679-.34a6.793 6.793 0 0 1-1.093-1.052c-1.457-1.803-2.381-3.86-2.724-6.179-.19-1.287-.2-2.567.217-3.817.565-1.691 1.608-2.92 3.316-3.477.836-.273 1.672-.232 2.497.057.475.167.944.352 1.415.53.391.149.766.097 1.155-.041.701-.25 1.399-.572 2.124-.682 1.821-.277 3.393.233 4.54 1.793.016.021.03.043.044.064.007.011.01.024.023.053Z" stroke="currentColor" stroke-width="2" stroke-miterlimit="10" stroke-linejoin="round"/></svg>