<svg fill="none" xmlns="http://www.w3.org/2000/svg" viewBox="0 0 24 24"><path opacity=".4" d="m3 7 2.25 1.25M12 12l-2.25-1.25M12 12l2.25-1.25M12 12v2.5M21 7l-2.25 1.25M12 22v-2.5" stroke="currentColor" stroke-width="2" stroke-linecap="round" stroke-linejoin="round"/><path d="m9.75 20.75 1.473.818c.284.158.425.237.576.267.133.028.27.028.402 0 .15-.03.292-.11.576-.267l1.473-.818m-9-2.5-1.427-.793c-.3-.166-.45-.25-.558-.368a1 1 0 0 1-.215-.364C3 16.573 3 16.401 3 16.06V14.5m0-5V7.941c0-.342 0-.514.05-.666a1 1 0 0 1 .215-.364c.109-.119.258-.202.558-.368L5.25 5.75m4.5-2.5 1.473-.818c.284-.158.425-.237.576-.268a1 1 0 0 1 .402 0c.15.031.292.11.576.268l1.473.818m4.5 2.5 1.427.793c.3.166.45.25.558.368a1 1 0 0 1 .215.364c.05.152.05.324.05.666V9.5m0 5v1.559c0 .342 0 .514-.05.666a1 1 0 0 1-.215.364c-.109.119-.258.202-.558.368l-1.427.793" stroke="currentColor" stroke-width="2" stroke-linecap="round" stroke-linejoin="round"/></svg>