<svg fill="none" xmlns="http://www.w3.org/2000/svg" viewBox="0 0 24 24"><path opacity=".4" d="M3.5 8H16m0 0v12.5M16 8l4.5-4.5" stroke="currentColor" stroke-width="2" stroke-linecap="round" stroke-linejoin="round"/><path d="M3 8.663c0-.245 0-.367.028-.482a1 1 0 0 1 .12-.29c.061-.1.148-.187.32-.36L7.532 3.47c.173-.173.26-.26.36-.322a1 1 0 0 1 .29-.12C8.296 3 8.418 3 8.663 3H20.2c.28 0 .42 0 .527.054a.5.5 0 0 1 .218.219C21 3.38 21 3.52 21 3.8v11.537c0 .245 0 .367-.028.482a.998.998 0 0 1-.12.29c-.061.1-.148.187-.32.36l-4.063 4.062c-.173.173-.26.26-.36.322a.998.998 0 0 1-.29.12c-.115.027-.237.027-.482.027H3.8c-.28 0-.42 0-.527-.055a.5.5 0 0 1-.219-.218C3 20.62 3 20.48 3 20.2V8.663Z" stroke="currentColor" stroke-width="2" stroke-linecap="round" stroke-linejoin="round"/></svg>