<svg fill="none" xmlns="http://www.w3.org/2000/svg" viewBox="0 0 24 24"><path d="M7.941 2H7.87c-.264-.001-.595-.002-.908.1a2 2 0 0 0-.728.43c-.242.222-.402.513-.53.744l-.034.063-4.112 7.4-.033.06c-.122.218-.276.493-.34.8a2 2 0 0 0 0 .806c.064.307.218.582.34.8l.033.06 4.112 7.4.034.063c.128.23.288.521.53.745.21.193.458.339.728.428.313.103.644.102.908.101h8.262c.264.001.595.002.908-.101.27-.09.518-.235.728-.428.242-.224.402-.514.53-.745l.034-.063 4.111-7.4.034-.06c.122-.218.276-.493.339-.8a1.99 1.99 0 0 0 0-.806c-.063-.307-.217-.582-.34-.8l-.033-.06-4.11-7.4-.035-.063c-.128-.231-.288-.522-.53-.745a2 2 0 0 0-.728-.428c-.313-.103-.645-.102-.908-.101H7.94Z" fill="currentColor"/></svg>