<svg fill="none" xmlns="http://www.w3.org/2000/svg" viewBox="0 0 24 24"><path opacity=".4" d="M13.27 22a9.158 9.158 0 0 1-4.323-7.781 3.054 3.054 0 1 1 6.107 0 3.054 3.054 0 1 0 6.108 0c0-5.062-4.102-9.164-9.16-9.164-5.059 0-9.16 4.102-9.16 9.164 0 1.128.126 2.226.358 3.286" stroke="currentColor" stroke-width="2" stroke-linecap="round" stroke-linejoin="round"/><path d="M8.1 21.221a12.16 12.16 0 0 1-2.208-7.002A6.108 6.108 0 0 1 12 8.109a6.108 6.108 0 0 1 6.106 6.11m.33 6.093c-.11.006-.217.016-.328.016a6.108 6.108 0 0 1-6.106-6.11m8.524-8.355A11.327 11.327 0 0 0 12 2a11.327 11.327 0 0 0-8.526 3.863" stroke="currentColor" stroke-width="2" stroke-linecap="round" stroke-linejoin="round"/></svg>