<svg fill="none" xmlns="http://www.w3.org/2000/svg" viewBox="0 0 24 24"><path opacity=".4" d="M7 11V8a5 5 0 0 1 9.9-1" stroke="currentColor" stroke-width="2" stroke-linecap="round" stroke-linejoin="round"/><path d="M3 15.8c0-1.68 0-2.52.327-3.162a3 3 0 0 1 1.311-1.311C5.28 11 6.12 11 7.8 11h8.4c1.68 0 2.52 0 3.162.327a3 3 0 0 1 1.311 1.311C21 13.28 21 14.12 21 15.8v.4c0 1.68 0 2.52-.327 3.162a3 3 0 0 1-1.311 1.311C18.72 21 17.88 21 16.2 21H7.8c-1.68 0-2.52 0-3.162-.327a3 3 0 0 1-1.311-1.311C3 18.72 3 17.88 3 16.2v-.4Z" stroke="currentColor" stroke-width="2" stroke-linecap="round" stroke-linejoin="round"/></svg>