<svg fill="none" xmlns="http://www.w3.org/2000/svg" viewBox="0 0 24 24"><path d="M11 2.462c0-.388 0-.582-.082-.707a.5.5 0 0 0-.309-.214c-.145-.033-.327.035-.69.172L5.595 3.334c-.618.23-1.16.433-1.578.802a3 3 0 0 0-.82 1.183c-.199.52-.198 1.1-.197 1.76V12c0 2.827 1.537 5.183 3.2 6.915a20.212 20.212 0 0 0 3.64 2.99c.353.227.53.34.696.329.14-.01.28-.087.364-.2.1-.132.1-.351.1-.79V2.463Zm2 18.783c0 .438 0 .657.1.79a.515.515 0 0 0 .364.199c.166.012.343-.102.697-.329a20.215 20.215 0 0 0 3.64-2.99C19.463 17.183 21 14.827 21 12V7.078c.001-.66.002-1.238-.196-1.759a3 3 0 0 0-.82-1.183c-.418-.369-.96-.571-1.579-.802l-4.324-1.622c-.363-.136-.545-.204-.69-.171a.5.5 0 0 0-.31.214C13 1.88 13 2.074 13 2.462v18.783Z" fill="currentColor"/></svg>