<svg fill="none" xmlns="http://www.w3.org/2000/svg" viewBox="0 0 24 24"><path opacity=".4" d="M19 10V6.2c0-1.12 0-1.68-.218-2.108a2 2 0 0 0-.874-.874C17.48 3 16.92 3 15.8 3H8.2c-1.12 0-1.68 0-2.108.218a2 2 0 0 0-.874.874C5 4.52 5 5.08 5 6.2V10m0-1H2V8m17 1h3V8M6 13.5h.01m11.99 0h.01m-11.51 0a.5.5 0 1 1-1 0 .5.5 0 0 1 1 0Zm12 0a.5.5 0 1 1-1 0 .5.5 0 0 1 1 0Z" stroke="currentColor" stroke-width="2" stroke-linecap="round" stroke-linejoin="round"/><path d="M17.2 10H6.8c-1.68 0-2.52 0-3.162.327a3 3 0 0 0-1.311 1.311C2 12.28 2 13.12 2 14.8V18c0 .932 0 1.398.152 1.765a2 2 0 0 0 1.083 1.083C3.602 21 4.068 21 5 21h.6c.372 0 .557 0 .713-.025a2 2 0 0 0 1.662-1.662C8 19.157 8 18.972 8 18.6c0-.093 0-.14.006-.178a.5.5 0 0 1 .416-.416C8.46 18 8.507 18 8.6 18h6.8c.093 0 .14 0 .178.006a.5.5 0 0 1 .416.416c.006.039.006.085.006.178 0 .372 0 .557.025.713a2 2 0 0 0 1.662 1.662c.156.025.341.025.713.025h.6c.932 0 1.398 0 1.765-.152a2 2 0 0 0 1.083-1.083C22 19.398 22 18.932 22 18v-3.2c0-1.68 0-2.52-.327-3.162a3 3 0 0 0-1.311-1.311C19.72 10 18.88 10 17.2 10Z" stroke="currentColor" stroke-width="2" stroke-linecap="round" stroke-linejoin="round"/></svg>