<svg fill="none" xmlns="http://www.w3.org/2000/svg" viewBox="0 0 24 24"><path opacity=".4" d="M22 12h-2m-.929 7.071-1.414-1.414M4 12H2m4.343-5.657L4.93 4.93M12 4V2m5.657 4.343L19.07 4.93M12 22v-2m-7.071-.929 1.414-1.414" stroke="currentColor" stroke-width="2" stroke-linecap="round" stroke-linejoin="round"/><path d="M12 22c5.523 0 10-4.477 10-10S17.523 2 12 2 2 6.477 2 12s4.477 10 10 10Z" stroke="currentColor" stroke-width="2" stroke-linecap="round" stroke-linejoin="round"/><path d="M10.5 10.5 8 12l2.5 1.5L12 16l1.5-2.5L16 12l-2.5-1.5L12 8l-1.5 2.5Z" stroke="currentColor" stroke-width="2" stroke-linecap="round" stroke-linejoin="round"/></svg>