<svg fill="none" xmlns="http://www.w3.org/2000/svg" viewBox="0 0 24 24"><path fill-rule="evenodd" clip-rule="evenodd" d="M4.512 1.5h8.031c.252 0 .498 0 .706.017.229.019.499.063.77.201a2 2 0 0 1 .874.874c.138.271.182.541.201.77.017.208.017.454.017.706v1.654h5.062c.195 0 .403 0 .578.016.18.017.489.06.775.266a1.5 1.5 0 0 1 .614 1.044c.041.35-.07.64-.143.807-.071.16-.173.343-.267.513l-1.432 2.576 1.432 2.577c.094.17.196.352.267.513.073.166.184.456.143.807a1.5 1.5 0 0 1-.614 1.043 1.54 1.54 0 0 1-.775.267 6.704 6.704 0 0 1-.578.016h-7.66c-.253 0-.499 0-.707-.017a2.022 2.022 0 0 1-.77-.201 2 2 0 0 1-.873-.874 2.022 2.022 0 0 1-.202-.77c-.017-.208-.017-.454-.017-.707v-1.654H5.892l2.328 9.313a1 1 0 1 1-1.94.485L2.018 4.695c-.077-.308-.15-.6-.189-.847a2.045 2.045 0 0 1 .041-.939 2 2 0 0 1 .874-1.12c.31-.188.635-.243.901-.267.25-.022.55-.022.867-.022Z" fill="currentColor"/></svg>