<svg fill="none" xmlns="http://www.w3.org/2000/svg" viewBox="0 0 24 24"><path opacity=".4" d="M4 3h15.587c.462 0 .694 0 .826.097a.5.5 0 0 1 .202.357c.015.163-.104.361-.342.758l-2.026 3.376c-.09.15-.135.225-.152.305a.5.5 0 0 0 0 .214c.017.08.062.155.152.305l2.026 3.376c.238.397.357.595.342.758a.5.5 0 0 1-.202.357c-.132.097-.364.097-.826.097H4" stroke="currentColor" stroke-width="2" stroke-linecap="round" stroke-linejoin="round"/><path d="M4 21V3" stroke="currentColor" stroke-width="2" stroke-linecap="round" stroke-linejoin="round"/></svg>