<svg fill="none" xmlns="http://www.w3.org/2000/svg" viewBox="0 0 24 24"><path opacity=".4" d="m2.687 15.645 1.908-1.101a.5.5 0 0 1 .342-.059l3.754.703a.5.5 0 0 0 .592-.494l-.014-3.29a.5.5 0 0 1 .068-.254l1.895-3.244a.5.5 0 0 0-.023-.54l-3.19-4.54M21.988 12.5s-2.61-.062-4.488-1c-1-.5-4-4 1.5-6.641" stroke="currentColor" stroke-width="2" stroke-linecap="round" stroke-linejoin="round"/><path d="M12.5 21.988A10.11 10.11 0 0 1 12 22C6.477 22 2 17.523 2 12S6.477 2 12 2s10 4.477 10 10c0 .168-.004.334-.012.5m-5.23 9.44-3.168-8.35 8.349 3.167-3.702 1.48-1.48 3.702Z" stroke="currentColor" stroke-width="2" stroke-linecap="round" stroke-linejoin="round"/></svg>