<svg fill="none" xmlns="http://www.w3.org/2000/svg" viewBox="0 0 24 24"><path opacity=".4" d="M12 22c-3-2-3.923-6.292-4-10 .077-3.708 1-8 4-10M2 12c2-3 6.292-3.923 10-4 3.708.077 8 1 10 4" stroke="currentColor" stroke-width="2" stroke-linecap="round" stroke-linejoin="round"/><path d="M22 12c0 5.523-4.477 10-10 10m10-10c0-5.523-4.477-10-10-10m10 10c-1.363 2.044-3.79 3.124-6.371 3.629M12 22C6.477 22 2 17.523 2 12m10 10c2.044-1.363 3.124-3.79 3.629-6.371M2 12C2 6.477 6.477 2 12 2M2 12c2 3 6.292 3.923 10 4a21.382 21.382 0 0 0 3.629-.371M12 2c3 2 3.923 6.292 4 10a21.382 21.382 0 0 1-.371 3.629" stroke="currentColor" stroke-width="2" stroke-linecap="round" stroke-linejoin="round"/></svg>