<svg fill="none" xmlns="http://www.w3.org/2000/svg" viewBox="0 0 24 24"><path opacity=".4" d="M5 14.286c-1.851.817-3 1.955-3 3.214C2 19.985 6.477 22 12 22s10-2.015 10-4.5c0-1.259-1.149-2.397-3-3.214" stroke="currentColor" stroke-width="2" stroke-linecap="round" stroke-linejoin="round"/><path d="M12 17c1.5-3 6-4.936 6-9A6 6 0 0 0 6 8c0 4.064 4.5 6 6 9Z" stroke="currentColor" stroke-width="2" stroke-linecap="round" stroke-linejoin="round"/><path d="M12 9a1 1 0 1 0 0-2 1 1 0 0 0 0 2Z" stroke="currentColor" stroke-width="2" stroke-linecap="round" stroke-linejoin="round"/></svg>