<svg fill="none" xmlns="http://www.w3.org/2000/svg" viewBox="0 0 24 24"><path opacity=".4" d="M11.338 6.161 20.3 2.663c.537-.21.806-.314.977-.257a.5.5 0 0 1 .316.316c.057.172-.047.44-.257.977l-3.51 8.992m-1.44 3.695-1.64 4.201c-.233.595-.349.893-.516.98a.5.5 0 0 1-.461 0c-.167-.088-.283-.385-.514-.98l-2.628-6.759a1.075 1.075 0 0 0-.107-.232.5.5 0 0 0-.117-.117 1.074 1.074 0 0 0-.232-.106l-6.758-2.628c-.595-.232-.893-.348-.98-.515a.5.5 0 0 1 0-.461c.086-.167.384-.283.98-.515l4.204-1.641" stroke="currentColor" stroke-width="2" stroke-linecap="round" stroke-linejoin="round"/><path d="M21 21 3 3" stroke="currentColor" stroke-width="2" stroke-linecap="round" stroke-linejoin="round"/></svg>