<svg fill="none" xmlns="http://www.w3.org/2000/svg" viewBox="0 0 24 24"><path d="M3.414 10.745c-.595-.232-.893-.348-.98-.515a.5.5 0 0 1 0-.461c.086-.167.384-.283.98-.515L20.3 2.664c.537-.21.806-.315.977-.258a.5.5 0 0 1 .316.316c.057.172-.047.44-.257.977l-6.59 16.888c-.233.595-.349.893-.516.98a.5.5 0 0 1-.461 0c-.167-.088-.283-.385-.514-.98l-2.628-6.759a1.075 1.075 0 0 0-.107-.232.5.5 0 0 0-.117-.117 1.074 1.074 0 0 0-.232-.106l-6.758-2.628Z" stroke="currentColor" stroke-width="2" stroke-linecap="round" stroke-linejoin="round"/></svg>