<svg fill="none" xmlns="http://www.w3.org/2000/svg" viewBox="0 0 24 24"><path opacity=".4" d="m10.471 5.476.792-1.806c.232-.528.348-.792.51-.873a.5.5 0 0 1 .446 0c.162.081.278.345.51.873l3.172 7.233M8.947 8.951l-4.965 11.32c-.257.586-.385.878-.329 1.057a.5.5 0 0 0 .327.327c.18.056.472-.072 1.056-.33l6.637-2.92c.12-.052.178-.078.24-.089a.508.508 0 0 1 .165 0c.062.01.121.037.24.089l6.637 2.92c.585.258.877.386 1.056.33a.5.5 0 0 0 .327-.327c.056-.179-.072-.471-.328-1.056l-.205-.466" stroke="currentColor" stroke-width="2" stroke-linecap="round" stroke-linejoin="round"/><path d="M22 22 2 2" stroke="currentColor" stroke-width="2" stroke-linecap="round" stroke-linejoin="round"/></svg>