<svg fill="none" xmlns="http://www.w3.org/2000/svg" viewBox="0 0 24 24"><path fill-rule="evenodd" clip-rule="evenodd" d="M17.026 2.117a3.483 3.483 0 0 1 5.021 4.828l-2.997 3.146 1.811 7.867c.058.243.13.55.105.861a2 2 0 0 1-.222.773c-.368.704-1.155 1.348-1.752 1.844-.232.194-.55.418-.964.492a2 2 0 0 1-1.54-.364c-.338-.25-.522-.594-.643-.87-.118-.27-.232-.612-.357-.985l-1.51-4.534-2.202 2.202c-.107.106-.16.16-.197.201l-.003.004c.005.095.017.19.028.285.063.57.125 1.142.19 1.712.025.217.056.49.013.764a2.001 2.001 0 0 1-.236.673c-.137.24-.332.434-.487.588-.304.302-.607.62-.869.84-.199.166-.458.35-.798.438a2 2 0 0 1-1.378-.136 2.04 2.04 0 0 1-.697-.587c-.792-.99-1.406-2.127-2.135-3.164-1.036-.728-2.173-1.342-3.163-2.134a2.04 2.04 0 0 1-.587-.697 2 2 0 0 1-.136-1.378 2.04 2.04 0 0 1 .439-.798c.219-.262.537-.565.838-.87.155-.154.349-.35.589-.486.208-.118.436-.198.673-.236.273-.044.546-.012.764.012.57.066 1.141.128 1.712.19.15.018.226.026.28.029h.005c.071-.064.138-.133.205-.2l2.201-2.201-4.533-1.512a12.377 12.377 0 0 1-.984-.356c-.278-.121-.62-.305-.871-.643a2 2 0 0 1-.364-1.54c.073-.414.298-.732.492-.964.494-.595 1.143-1.386 1.843-1.753a2 2 0 0 1 .773-.221c.313-.024.618.047.862.104l7.837 1.805 2.944-3.029Z" fill="currentColor"/></svg>