<svg fill="none" xmlns="http://www.w3.org/2000/svg" viewBox="0 0 24 24"><path opacity=".4" d="m13 11-9.5 9.5M9.255 7.896 6.38 6.938a1 1 0 0 0-.962.185L2.56 9.541a1 1 0 0 0 .3 1.702l2.707.997m6.113 6.113.997 2.707a1 1 0 0 0 1.702.3l2.418-2.857a1 1 0 0 0 .185-.962l-.958-2.875" stroke="currentColor" stroke-width="2" stroke-linecap="round" stroke-linejoin="round"/><path d="M14.018 3.538a22.608 22.608 0 0 1 3.483 2.855 22.605 22.605 0 0 1 2.876 3.515M19.349 2.27l-4.907.817a2.444 2.444 0 0 0-1.383.741L6.446 10.9a4.652 4.652 0 0 0 6.576 6.575l7.07-6.613c.392-.367.652-.853.74-1.382l.818-4.907a2 2 0 0 0-2.301-2.301Z" stroke="currentColor" stroke-width="2" stroke-linecap="round" stroke-linejoin="round"/></svg>