<svg fill="none" xmlns="http://www.w3.org/2000/svg" viewBox="0 0 24 24"><path opacity=".4" d="M10 8V7m0 5.5v-1m0 5.5v-1" stroke="currentColor" stroke-width="2" stroke-linecap="round" stroke-linejoin="round"/><path d="M18.8 4H5.2c-1.12 0-1.68 0-2.108.218a2 2 0 0 0-.874.874C2 5.52 2 6.08 2 7.2v1.3a3.5 3.5 0 1 1 0 7v1.3c0 1.12 0 1.68.218 2.108a2 2 0 0 0 .874.874C3.52 20 4.08 20 5.2 20h13.6c1.12 0 1.68 0 2.108-.218a2 2 0 0 0 .874-.874C22 18.48 22 17.92 22 16.8v-1.3a3.5 3.5 0 1 1 0-7V7.2c0-1.12 0-1.68-.218-2.108a2 2 0 0 0-.874-.874C20.48 4 19.92 4 18.8 4Z" stroke="currentColor" stroke-width="2" stroke-linecap="round" stroke-linejoin="round"/></svg>