<svg fill="none" xmlns="http://www.w3.org/2000/svg" viewBox="0 0 24 24"><path opacity=".4" d="M6.5 21a2.5 2.5 0 1 0 0-5 2.5 2.5 0 0 0 0 5Zm11 0a2.5 2.5 0 1 0 0-5 2.5 2.5 0 0 0 0 5Z" stroke="currentColor" stroke-width="2" stroke-linecap="round" stroke-linejoin="round"/><path d="M12.8 3H5.2c-1.12 0-1.68 0-2.108.218a2 2 0 0 0-.874.874C2 4.52 2 5.08 2 6.2v6.6c0 1.12 0 1.68.218 2.108a2 2 0 0 0 .874.874C3.52 16 4.08 16 5.2 16H16V6.2c0-1.12 0-1.68-.218-2.108a2 2 0 0 0-.874-.874C14.48 3 13.92 3 12.8 3ZM16 8h2.337c.245 0 .367 0 .482.028a1 1 0 0 1 .29.12c.1.061.187.148.36.32l2.062 2.063c.173.173.26.26.322.36.054.09.095.188.12.29.027.115.027.237.027.482V14.4c0 .56 0 .84-.109 1.054a1 1 0 0 1-.437.437C21.24 16 20.96 16 20.4 16H16" stroke="currentColor" stroke-width="2" stroke-linecap="round" stroke-linejoin="round"/></svg>